<svg width="18" height="18" viewBox="0 0 18 18" fill="none" xmlns="http://www.w3.org/2000/svg">
<path d="M8.99325 2.25C5.26725 2.25 2.25 5.274 2.25 9C2.25 12.726 5.26725 15.75 8.99325 15.75C12.726 15.75 15.75 12.726 15.75 9C15.75 5.274 12.726 2.25 8.99325 2.25ZM13.671 6.3H11.6798C11.4637 5.45625 11.1533 4.64625 10.7483 3.897C11.9903 4.32225 13.023 5.18625 13.671 6.3ZM9 3.627C9.56025 4.437 9.999 5.33475 10.2893 6.3H7.71075C8.001 5.33475 8.43975 4.437 9 3.627ZM3.7755 10.35C3.6675 9.918 3.6 9.46575 3.6 9C3.6 8.53425 3.6675 8.082 3.7755 7.65H6.057C6.003 8.0955 5.9625 8.541 5.9625 9C5.9625 9.459 6.003 9.9045 6.057 10.35H3.7755ZM4.329 11.7H6.32025C6.53625 12.5437 6.84675 13.3538 7.25175 14.103C6.00975 13.6777 4.977 12.8205 4.329 11.7ZM6.32025 6.3H4.329C4.977 5.1795 6.00975 4.32225 7.25175 3.897C6.84675 4.64625 6.53625 5.45625 6.32025 6.3ZM9 14.373C8.43975 13.563 8.001 12.6652 7.71075 11.7H10.2893C9.999 12.6652 9.56025 13.563 9 14.373ZM10.5795 10.35H7.4205C7.35975 9.9045 7.3125 9.459 7.3125 9C7.3125 8.541 7.35975 8.08875 7.4205 7.65H10.5795C10.6403 8.08875 10.6875 8.541 10.6875 9C10.6875 9.459 10.6403 9.9045 10.5795 10.35ZM10.7483 14.103C11.1533 13.3538 11.4637 12.5437 11.6798 11.7H13.671C13.023 12.8138 11.9903 13.6777 10.7483 14.103ZM11.943 10.35C11.997 9.9045 12.0375 9.459 12.0375 9C12.0375 8.541 11.997 8.0955 11.943 7.65H14.2245C14.3325 8.082 14.4 8.53425 14.4 9C14.4 9.46575 14.3325 9.918 14.2245 10.35H11.943Z" fill="white"/>
</svg>
