<svg width="24" height="24" viewBox="0 0 24 24" fill="none" xmlns="http://www.w3.org/2000/svg">
<path d="M8.5 13.5H15.5V16C15.5 16.9283 15.1313 17.8185 14.4749 18.4749C13.8185 19.1313 12.9283 19.5 12 19.5V19.5C11.0717 19.5 10.1815 19.1313 9.52513 18.4749C8.86875 17.8185 8.5 16.9283 8.5 16V13.5Z" stroke="#202024" stroke-width="1.5" stroke-linecap="round" stroke-linejoin="round"/>
<path d="M10.5 13.5V11.5" stroke="#202024" stroke-width="1.5" stroke-linecap="round" stroke-linejoin="round"/>
<path d="M13.5 13.5V11.5" stroke="#202024" stroke-width="1.5" stroke-linecap="round" stroke-linejoin="round"/>
<path d="M5.125 15.0001C4.6274 13.8588 4.42177 12.6115 4.52666 11.3708C4.63156 10.1302 5.04367 8.93516 5.72583 7.89358C6.40799 6.852 7.33872 5.99663 8.43407 5.40464C9.52942 4.81266 10.7549 4.50269 12 4.50269C13.2451 4.50269 14.4706 4.81266 15.5659 5.40464C16.6613 5.99663 17.592 6.852 18.2742 7.89358C18.9563 8.93516 19.3684 10.1302 19.4733 11.3708C19.5782 12.6115 19.3726 13.8588 18.875 15.0001" stroke="#202024" stroke-width="1.5" stroke-linecap="round" stroke-linejoin="round"/>
<path d="M8 9.93601C8.37857 9.20147 8.95209 8.58536 9.65767 8.15523C10.3633 7.7251 11.1736 7.49756 12 7.49756C12.8264 7.49756 13.6367 7.7251 14.3423 8.15523C15.0479 8.58536 15.6214 9.20147 16 9.93601" stroke="#202024" stroke-width="1.5" stroke-linecap="round" stroke-linejoin="round"/>
</svg>
