<svg width="24" height="24" viewBox="0 0 24 24" fill="none" xmlns="http://www.w3.org/2000/svg">
<path d="M20.4519 3.79425C20.9789 3.94476 21.1749 4.58562 20.8214 5.00258L14.7643 12.1478L19.363 13.4612C20.0017 13.6436 20.1105 14.4979 19.5377 14.833L7.47267 21.8917C6.80358 22.2831 6.04669 21.5378 6.43336 20.8682L9.95686 14.767L6.54812 13.7935C6.04809 13.6507 5.83888 13.06 6.13847 12.6369L8.61268 9.14287H3.75C3.33579 9.14287 3 8.82307 3 8.42858C3 8.03409 3.33579 7.7143 3.75 7.7143L13.7143 7.71429C14.1088 7.71429 14.4286 7.39449 14.4286 7C14.4286 6.60551 14.1088 6.28571 13.7143 6.28571H8.25C7.83579 6.28571 7.5 5.96592 7.5 5.57143C7.5 5.17694 7.83579 4.85714 8.25 4.85714H11.6475L13.4447 2.31917C13.6302 2.05719 13.9622 1.94084 14.2718 2.02926L20.4519 3.79425Z" fill="#0C0C0F"/>
</svg>
