<svg width="24" height="24" viewBox="0 0 24 24" fill="none" xmlns="http://www.w3.org/2000/svg">
<defs>
<g id="ferry">
<path fill-rule="evenodd" clip-rule="evenodd" d="M9 4.3V6H7.3C6.58203 6 6 6.58203 6 7.3V10.7083L4.02172 11.2853C3.30969 11.493 2.91544 12.2534 3.15599 12.955L4.5939 17.1489C4.75366 17.6148 5.16703 17.9567 5.66615 18.0163C8.13513 18.3114 9.67163 17.8092 11.4686 17.2219C11.6342 17.1678 11.802 17.113 11.973 17.0579C14.2357 17.8933 15.7386 18.1477 18.2538 18.0102C18.7839 17.9812 19.2402 17.6326 19.411 17.1345L20.844 12.955C21.0846 12.2534 20.6903 11.493 19.9783 11.2853L18 10.7083V7.3C18 6.58203 17.418 6 16.7 6H15V4.3C15 3.58203 14.418 3 13.7 3H10.3C9.58203 3 9 3.58203 9 4.3ZM11 5V6H13V5H11ZM8 10.125V8H16V10.125L12.364 9.0645C12.1263 8.99517 11.8737 8.99517 11.636 9.0645L8 10.125ZM5.28572 13L12 11.0417L18.7143 13L17.6739 16.0345C15.6408 16.1054 14.4198 15.8518 12.356 15.0655L12.0317 14.942L11.7006 15.0459C11.3889 15.1437 11.0982 15.238 10.823 15.3273C9.18146 15.8599 8.08785 16.2148 6.33976 16.0743L5.28572 13Z" fill="#252A32"/>
<path d="M12.3552 18.5652L12.0095 18.4338L11.6614 18.5591C10.2708 19.0594 9.20948 19.3166 8.11759 19.3852C7.01927 19.4543 5.83422 19.3362 4.18991 19.0182C3.64767 18.9133 3.12308 19.2679 3.0182 19.8101C2.91332 20.3523 3.26786 20.8769 3.8101 20.9818C5.53097 21.3147 6.90378 21.4655 8.2431 21.3813C9.48337 21.3033 10.6475 21.0268 11.9916 20.5633C13.1852 20.9936 14.2658 21.255 15.4915 21.3348C16.8185 21.4211 18.2688 21.2914 20.1589 20.9873C20.7041 20.8996 21.075 20.3864 20.9873 19.8411C20.8996 19.2959 20.3864 18.925 19.8411 19.0127C18.0069 19.3078 16.728 19.411 15.6214 19.339C14.5312 19.268 13.5624 19.0239 12.3552 18.5652Z" fill="#252A32"/>
</g>
</defs>
</svg>
