<svg width="24" height="24" viewBox="0 0 24 24" fill="none" xmlns="http://www.w3.org/2000/svg">
<path d="M7 14C8.66 14 10 12.66 10 11C10 9.34 8.66 8 7 8C5.34 8 4 9.34 4 11C4 12.66 5.34 14 7 14ZM7 10C7.55 10 8 10.45 8 11C8 11.55 7.55 12 7 12C6.45 12 6 11.55 6 11C6 10.45 6.45 10 7 10ZM19 7H12C11.4477 7 11 7.44772 11 8V15H3V6C3 5.44772 2.55228 5 2 5C1.44772 5 1 5.44772 1 6V19C1 19.5523 1.44772 20 2 20C2.55228 20 3 19.5523 3 19V17H21V19C21 19.5523 21.4477 20 22 20C22.5523 20 23 19.5523 23 19V11C23 8.79 21.21 7 19 7ZM21 15H13V9H19C20.1 9 21 9.9 21 11V15Z" fill="#252A32"/>
</svg>
