<svg width="24" height="24" viewBox="0 0 24 24" fill="none" xmlns="http://www.w3.org/2000/svg">
<defs>
<g id="park">
<path fill-rule="evenodd" clip-rule="evenodd" d="M10 7.5V11.5C10 13.0855 8.94574 14.4248 7.5 14.8551V9C7.5 8.44772 7.05228 8 6.5 8C5.94772 8 5.5 8.44772 5.5 9V14.8551C4.05426 14.4248 3 13.0855 3 11.5V7.5C3 5.567 4.567 4 6.5 4C8.433 4 10 5.567 10 7.5ZM5.5 16.9093C2.93988 16.4391 1 14.1961 1 11.5V7.5C1 4.46243 3.46243 2 6.5 2C9.53757 2 12 4.46243 12 7.5V11.5C12 14.1961 10.0601 16.4391 7.5 16.9093V22C7.5 22.5523 7.05228 23 6.5 23C5.94772 23 5.5 22.5523 5.5 22V16.9093Z" fill="#252A32"/>
<path fill-rule="evenodd" clip-rule="evenodd" d="M12 16C12 15.4477 12.4477 15 13 15H22C22.5523 15 23 15.4477 23 16C23 16.5523 22.5523 17 22 17H13C12.4477 17 12 16.5523 12 16Z" fill="#252A32"/>
<path fill-rule="evenodd" clip-rule="evenodd" d="M11 19C11 18.4477 11.4477 18 12 18H23C23.5523 18 24 18.4477 24 19C24 19.5523 23.5523 20 23 20H22V22C22 22.5523 21.5523 23 21 23C20.4477 23 20 22.5523 20 22V20H15V22C15 22.5523 14.5523 23 14 23C13.4477 23 13 22.5523 13 22V20H12C11.4477 20 11 19.5523 11 19Z" fill="#252A32"/>
</g>
</defs>
</svg>
