<svg width="24" height="24" viewBox="0 0 24 24" fill="none" xmlns="http://www.w3.org/2000/svg">
<path d="M21 6.78488C21 6.22467 20.5523 5.77053 20 5.77053H18.36L19.1596 3.53651C19.3477 3.01089 19.081 2.42997 18.5633 2.2378L18.0899 2.06206C17.5709 1.86942 16.9963 2.14027 16.8068 2.66683L15.69 5.77053H4C3.44771 5.77053 3 6.22467 3 6.78488V7.79922L5 13.8853L3 19.9713V20.9857C3 21.5459 3.44772 22 4 22H20C20.5523 22 21 21.5459 21 20.9857V19.9713L19 13.8853L21 7.79922V6.78488ZM18.89 19.9713H5.11L7.11 13.8853L5.11 7.79922H18.89L16.89 13.8853L18.89 19.9713ZM13 10.8422C13 10.282 12.5523 9.8279 12 9.8279C11.4477 9.8279 11 10.282 11 10.8422V12.8709H9C8.44772 12.8709 8 13.3251 8 13.8853C8 14.4455 8.44772 14.8996 9 14.8996H11V16.9283C11 17.4885 11.4477 17.9426 12 17.9426C12.5523 17.9426 13 17.4885 13 16.9283V14.8996H15C15.5523 14.8996 16 14.4455 16 13.8853C16 13.3251 15.5523 12.8709 15 12.8709H13V10.8422Z" fill="#252A32"/>
</svg>
