<svg width="24" height="24" viewBox="0 0 24 24" fill="none" xmlns="http://www.w3.org/2000/svg">
<path fill-rule="evenodd" clip-rule="evenodd" d="M20.3871 16.2035V12.9273C20.3871 12.4013 19.9531 11.9749 19.4177 11.9749H16.7436L15.0778 11.112C14.5699 10.8489 13.9412 11.0544 13.6951 11.564C13.4631 12.0442 13.6578 12.6186 14.1363 12.8664L16.2867 13.9799H18.4511V15.7023L4.47727 12.0852L5.1655 10.6597L6.43453 11.9749H8.7188C9.28237 11.9749 9.73923 11.5261 9.73923 10.9724C9.73923 10.4188 9.28237 9.96993 8.7188 9.96993H7.23602L5.60729 8.28247C5.13863 7.79693 4.31984 7.92508 4.02796 8.52966L2.55194 11.587L1.96942 13.4286L3.93132 16.2877V18.0415C3.93132 18.5667 4.3647 18.9925 4.89931 18.9925C5.43391 18.9925 5.86729 18.5667 5.86729 18.0415V15.6812L4.96416 14.2777L10.7072 15.7654V20.0465C10.7072 20.5717 11.1406 20.9975 11.6752 20.9975C12.2098 20.9975 12.6432 20.5717 12.6432 20.0465V16.2667L17.5257 17.5308L16.5151 18.5764V21.049C16.5151 21.5742 16.9485 22 17.4831 22C18.0177 22 18.4511 21.5742 18.4511 21.049V19.4075L19.7163 18.0972L20.3871 16.2035Z" fill="#252A32"/>
<path fill-rule="evenodd" clip-rule="evenodd" d="M6.81648 3.90476C6.28108 3.90476 5.84706 4.33116 5.84706 4.85714C5.84706 5.38313 6.28108 5.80952 6.81648 5.80952C7.35187 5.80952 7.78589 5.38313 7.78589 4.85714C7.78589 4.33116 7.35187 3.90476 6.81648 3.90476ZM3.90824 4.85714C3.90824 3.27919 5.2103 2 6.81648 2C8.42265 2 9.72471 3.27919 9.72471 4.85714C9.72471 6.4351 8.42265 7.71428 6.81648 7.71428C5.2103 7.71428 3.90824 6.4351 3.90824 4.85714Z" fill="#252A32"/>
<path fill-rule="evenodd" clip-rule="evenodd" d="M19.4188 7.71428C18.8834 7.71428 18.4494 8.14068 18.4494 8.66666C18.4494 9.19265 18.8834 9.61904 19.4188 9.61904C19.9542 9.61904 20.3883 9.19265 20.3883 8.66666C20.3883 8.14068 19.9542 7.71428 19.4188 7.71428ZM16.5106 8.66666C16.5106 7.08871 17.8127 5.80952 19.4188 5.80952C21.025 5.80952 22.3271 7.08871 22.3271 8.66666C22.3271 10.2446 21.025 11.5238 19.4188 11.5238C17.8127 11.5238 16.5106 10.2446 16.5106 8.66666Z" fill="#252A32"/>
<path d="M22.2422 16.5924C22.7757 16.7308 23.0997 17.2618 22.9723 17.7893C22.8404 18.3357 22.2763 18.6681 21.7235 18.525L20.3918 18.1804L21.0591 16.2857L22.2422 16.5924Z" fill="#252A32"/>
<path d="M1.05205 12.2921C1.18417 11.7459 1.74836 11.4139 2.3009 11.5572L1.66669 13.4592C1.19722 13.3377 0.912175 12.8704 1.02442 12.4063L1.05205 12.2921Z" fill="#252A32"/>
</svg>
