<svg width="24" height="24" viewBox="0 0 24 24" fill="none" xmlns="http://www.w3.org/2000/svg">
<path d="M19 6H17C17 3.24 14.76 1 12 1C9.24 1 7 3.24 7 6H5C3.9 6 3 6.9 3 8V20C3 21.1 3.9 22 5 22H19C20.1 22 21 21.1 21 20V8C21 6.9 20.1 6 19 6ZM12 3C13.66 3 15 4.34 15 6H9C9 4.34 10.34 3 12 3ZM19 20H5V8H19V20ZM12 12C10.6841 12 9.56934 11.158 9.16368 9.98205C8.98357 9.45995 8.55228 9 8 9C7.44772 9 6.98957 9.45223 7.09886 9.9936C7.56006 12.2781 9.58017 14 12 14C14.4198 14 16.4399 12.2781 16.9011 9.9936C17.0104 9.45223 16.5523 9 16 9C15.4477 9 15.0164 9.45995 14.8363 9.98205C14.4307 11.158 13.3159 12 12 12Z" fill="#252A32"/>
</svg>
