<svg width="16" height="16" viewBox="0 0 16 16" fill="none" xmlns="http://www.w3.org/2000/svg">
<path fill-rule="evenodd" clip-rule="evenodd" d="M8 16C12.4183 16 16 12.4183 16 8C16 3.58172 12.4183 0 8 0C3.58172 0 0 3.58172 0 8C0 12.4183 3.58172 16 8 16ZM9.4749 3.18247C9.22656 2.93918 8.83213 2.93918 8.58379 3.18247C8.33544 3.42576 8.33544 3.81216 8.58379 4.05546C10.8043 6.23077 10.8043 9.76565 8.58379 11.941C8.33544 12.1843 8.33544 12.5707 8.58379 12.814C8.70065 12.9284 8.86135 13 9.02204 13C9.18273 13 9.34342 12.9428 9.46029 12.814C12.1775 10.1521 12.1775 5.83005 9.4749 3.18247ZM4.56642 9.03583C5.15538 9.03583 5.63283 8.56809 5.63283 7.9911C5.63283 7.41412 5.15538 6.94638 4.56642 6.94638C3.97745 6.94638 3.5 7.41412 3.5 7.9911C3.5 8.56809 3.97745 9.03583 4.56642 9.03583ZM6.49478 5.21471C6.74312 4.97142 7.13755 4.97142 7.3859 5.21471C8.949 6.74602 8.96361 9.23618 7.37129 10.7675C7.25442 10.8963 7.09373 10.9535 6.93303 10.9535C6.77234 10.9535 6.61165 10.882 6.49478 10.7675C6.24644 10.5242 6.24644 10.1378 6.49478 9.8945C7.57581 8.84977 7.5612 7.13242 6.49478 6.0877C6.24644 5.84441 6.24644 5.458 6.49478 5.21471Z" fill="#2BC7B4"/>
</svg>
