<svg xmlns="http://www.w3.org/2000/svg" width="24" height="24" viewBox="0 0 24 24"><path d="M11.82 6.418a4.5 4.5 0 0 1 5.613 5.613 7.527 7.527 0 0 1 .12 2.745 6 6 0 0 0-8.477-8.477 7.564 7.564 0 0 1 2.744.119Z" /><path d="M10.125 9.227a4.5 4.5 0 1 0 0 9 4.5 4.5 0 0 0 0-9Zm-6 4.5a6 6 0 1 1 12 0 6 6 0 0 1-12 0Z" /><path d="M12.197 15.184v.841H8.474v-.717l1.76-1.888c.178-.197.317-.37.42-.52.101-.152.175-.288.22-.407a.99.99 0 0 0-.011-.77.614.614 0 0 0-.243-.277.726.726 0 0 0-.39-.097.75.75 0 0 0-.425.12.76.76 0 0 0-.27.332c-.06.142-.09.303-.09.482h-1.08c0-.324.078-.62.232-.89a1.7 1.7 0 0 1 .654-.646c.282-.162.616-.243 1.002-.243.382 0 .703.062.965.187.264.122.463.299.598.53.137.23.206.504.206.823 0 .18-.03.355-.086.527-.058.17-.14.34-.247.508a4.08 4.08 0 0 1-.382.509c-.149.172-.315.35-.497.535l-.946 1.061h2.333Z" /></svg>
