<svg width="24" height="24" viewBox="0 0 24 24" fill="none" xmlns="http://www.w3.org/2000/svg">
<defs>
<g id="DOMESTIC_B">
<path fill-rule="evenodd" clip-rule="evenodd" d="M6 6.5C6.55228 6.5 7 6.94772 7 7.5V9.5C7 10.0523 6.55228 10.5 6 10.5C5.44772 10.5 5 10.0523 5 9.5V7.5C5 6.94772 5.44772 6.5 6 6.5Z" fill="currentColor"/>
<path fill-rule="evenodd" clip-rule="evenodd" d="M18 6.5C18.5523 6.5 19 6.94772 19 7.5V9.5C19 10.0523 18.5523 10.5 18 10.5C17.4477 10.5 17 10.0523 17 9.5V7.5C17 6.94772 17.4477 6.5 18 6.5Z" fill="currentColor"/>
<path fill-rule="evenodd" clip-rule="evenodd" d="M4 3C2.34315 3 1 4.34315 1 6V11C1 12.6569 2.34315 14 4 14H7V16.25C7 18.9332 9.30035 21 12 21C14.6996 21 17 18.9332 17 16.25V14H20.0005C21.6576 14 23 12.6565 23 11V6C23 4.34315 21.6569 3 20 3H4ZM15 13C15 12.4477 15.4477 12 16 12H20.0005C20.5525 12 21 11.5526 21 11V6C21 5.44772 20.5523 5 20 5H4C3.44772 5 3 5.44772 3 6V11C3 11.5523 3.44772 12 4 12H8C8.55228 12 9 12.4477 9 13V16.25C9 17.709 10.2814 19 12 19C13.7186 19 15 17.709 15 16.25V13Z" fill="currentColor"/>
<path d="M13 16C13 16.5523 12.5523 17 12 17C11.4477 17 11 16.5523 11 16C11 15.4477 11.4477 15 12 15C12.5523 15 13 15.4477 13 16Z" fill="currentColor"/>
</g>
</defs>
</svg>
