<svg width="24" height="24" viewBox="0 0 24 24" fill="none" xmlns="http://www.w3.org/2000/svg">
<defs>
<g id="TESLA_R">
<path fill-rule="evenodd" clip-rule="evenodd" d="M18 23C21.3137 23 24 20.3137 24 17C24 13.6863 21.3137 11 18 11C14.6863 11 12 13.6863 12 17C12 20.3137 14.6863 23 18 23ZM21.3039 15.1351C20.1365 14.6038 18.9962 14.4349 18 14.4428C17.0037 14.4349 15.8631 14.6038 14.696 15.1351C14.5569 14.8719 14.5 14.7122 14.5 14.7122C15.7759 14.185 16.9709 14.0045 17.9999 14C19.0289 14.0045 20.2239 14.185 21.5 14.7122C21.5 14.7122 21.4599 14.8419 21.3039 15.1351ZM18.9583 15.5351L18.0007 21L17.0354 15.5343C16.1288 15.535 15.8413 15.6366 15.7994 16.0511C15.7994 16.0511 15.1869 15.8195 14.8784 15.349C16.0833 14.7823 17.2942 14.7567 17.2942 14.7567L18 15.6291L18.7057 14.7569C18.7057 14.7569 19.9165 14.7824 21.1216 15.3491C20.8128 15.8196 20.2005 16.0513 20.2005 16.0513C20.1589 15.6367 19.871 15.5351 18.9583 15.5351Z" fill="currentColor"/>
<path d="M10.5 3.12444C6.24343 3.83855 3 7.54051 3 12C3 16.4783 6.27182 20.1943 10.5554 20.8848C11.1007 20.9727 11.4714 21.486 11.3835 22.0312C11.2956 22.5765 10.7824 22.9472 10.2371 22.8593C4.99981 22.0151 1 17.4756 1 12C1 5.92487 5.92487 1 12 1C16.7971 1 20.8745 4.07009 22.3795 8.34955C22.5627 8.87056 22.2889 9.44145 21.7679 9.62468C21.2469 9.80791 20.676 9.53409 20.4928 9.01309C19.4211 5.96583 16.7563 3.67079 13.5 3.12445V4.5C13.5 5.32843 12.8284 6 12 6C11.1716 6 10.5 5.32843 10.5 4.5V3.12444Z" fill="currentColor"/>
<path d="M10 12C10 13.1046 9.10457 14 8 14C6.89543 14 6 13.1046 6 12C6 10.8954 6.89543 10 8 10C9.10457 10 10 10.8954 10 12Z" fill="currentColor"/>
</g>
</defs>
</svg>
