<svg width="24" height="24" viewBox="0 0 24 24" fill="none" xmlns="http://www.w3.org/2000/svg">
<defs>
<g id="bathroom">
<path fill-rule="evenodd" clip-rule="evenodd" d="M3.12875 4.80572C3.12875 3.23952 4.51943 2 6.18556 2C7.85199 2 9.24312 3.23946 9.24312 4.80572C9.24312 6.05853 8.35378 7.10256 7.14534 7.4707C8.98403 7.88019 10.3728 9.39873 10.3728 11.2322V14.607C10.3728 15.2805 9.82154 15.8265 9.14151 15.8265H8.28718V21.1327C8.28718 21.6115 7.89528 21.9996 7.41183 21.9996C6.92839 21.9996 6.53649 21.6115 6.53649 21.1327V14.1917H8.62211V11.2322C8.62211 10.0289 7.55184 9.01521 6.18659 8.9966C4.82095 9.01521 3.7507 10.029 3.7507 11.2322V14.1917H5.83632V21.1327C5.83632 21.6115 5.44441 21.9996 4.96097 21.9996C4.47753 21.9996 4.08562 21.6115 4.08562 21.1327V15.8265H3.2313C2.55127 15.8265 2 15.2805 2 14.607V11.2322C2 9.39954 3.38783 7.88102 5.22564 7.47059C4.01764 7.10235 3.12875 6.05837 3.12875 4.80572ZM14.0966 4.80607C14.0966 3.25052 15.417 2.00036 17.0223 2.00036C18.6278 2.00036 19.9477 3.25057 19.9477 4.80607C19.9477 6.05155 19.1022 7.10159 17.9414 7.47115C19.6797 7.87667 20.9876 9.36464 21.0232 11.156L21.9801 16.4099C22.1163 17.158 21.5359 17.8459 20.7684 17.8459H19.0358V21.1619C19.0358 21.6246 18.6571 21.9997 18.1899 21.9997C17.7227 21.9997 17.344 21.6246 17.344 21.1619V16.2111H20.2267L19.332 11.2538V11.2322C19.332 10.0185 18.307 9.01516 17.022 8.99661C15.7373 9.01516 14.7119 10.0185 14.7119 11.2322V11.243L14.7011 11.3629L13.8178 16.2111H16.7003V21.1622C16.7003 21.6249 16.3216 22 15.8544 22C15.3872 22 15.0085 21.6249 15.0085 21.1622V17.8462H13.2754C12.5078 17.8462 11.9273 17.1583 12.0637 16.4101L13.0211 11.1563C13.0573 9.36552 14.3648 7.8771 16.1025 7.47087C14.942 7.10102 14.0966 6.05101 14.0966 4.80607ZM6.18556 3.63512C5.44589 3.63512 4.87944 4.17922 4.87944 4.80572C4.87944 5.4331 5.44613 5.97767 6.18556 5.97767C6.92581 5.97767 7.49242 5.43303 7.49242 4.80572C7.49242 4.17933 6.92571 3.63512 6.18556 3.63512ZM17.0223 3.63514C16.3341 3.63514 15.7888 4.16858 15.7888 4.80574C15.7888 5.4438 16.3344 5.97769 17.0223 5.97769C17.7102 5.97769 18.2555 5.44387 18.2555 4.80574C18.2555 4.1685 17.7105 3.63514 17.0223 3.63514Z" fill="#252A32"/>
</g>
</defs>
</svg>
