<svg width="24" height="24" viewBox="0 0 24 24" fill="none" xmlns="http://www.w3.org/2000/svg">
<path d="M21.3518 10.1967C21.7098 10.1967 22 9.91091 22 9.55832C22 9.34223 21.889 9.14081 21.7051 9.02305L12.545 3.15911C12.2136 2.94696 11.7864 2.94696 11.455 3.15911L2.29495 9.02305C2.11099 9.14081 2 9.34223 2 9.55832C2 9.91091 2.29022 10.1967 2.64822 10.1967H4V19.0605C4 19.6045 4.44772 20.0454 5 20.0454H19C19.5523 20.0454 20 19.6045 20 19.0605V10.1967H21.3518ZM18 18.0757H6V9.21186L12 5.2724L18 9.21186V18.0757Z" fill="#252A32"/>
<path d="M4 21.0303H20C20.5523 21.0303 21 21.4712 21 22.0151C21 22.5591 20.5523 23 20 23H4C3.44772 23 3 22.5591 3 22.0151C3 21.4712 3.44772 21.0303 4 21.0303Z" fill="#252A32"/>
<path d="M9 9.21186C8.44772 9.21186 8 9.6528 8 10.1967V15.1211C8 15.665 8.44772 16.1059 9 16.1059C9.55228 16.1059 10 15.665 10 15.1211V13.1513H10.0613L11.208 14.7213C11.3913 14.9723 11.6861 15.1211 12 15.1211C12.3139 15.1211 12.6087 14.9723 12.792 14.7213L13.9387 13.1513H14V15.1211C14 15.665 14.4477 16.1059 15 16.1059C15.5523 16.1059 16 15.665 16 15.1211V10.1967C16 9.6528 15.5523 9.21186 15 9.21186H14.6453C14.2922 9.21186 13.9652 9.39525 13.7851 9.69436L12 12.6589H11.9135L10.2118 9.71009C10.0341 9.40211 9.70213 9.21186 9.34244 9.21186H9Z" fill="#252A32"/>
</svg>
