<svg width="24" height="24" viewBox="0 0 24 24" fill="none" xmlns="http://www.w3.org/2000/svg">
<path fill-rule="evenodd" clip-rule="evenodd" d="M8 4C7.09213 4 6 5.01145 6 6.75V9.25C6 10.9885 7.09213 12 8 12C8.90787 12 10 10.9885 10 9.25V6.75C10 5.01145 8.90787 4 8 4ZM4 6.75C4 4.34641 5.59416 2 8 2C10.4058 2 12 4.34641 12 6.75V9.25C12 11.3024 10.8376 13.3132 9 13.8569V21C9 21.5523 8.55228 22 8 22C7.44772 22 7 21.5523 7 21V13.8569C5.1624 13.3132 4 11.3024 4 9.25V6.75ZM18 4.17157C17.5821 4.31933 17.1981 4.55927 16.8787 4.87868C16.3161 5.44129 16 6.20435 16 7V12H18V4.17157ZM20 3C20 2.73478 19.8946 2.48043 19.7071 2.29289C19.5196 2.10536 19.2652 2 19 2C17.6739 2 16.4021 2.52678 15.4645 3.46447C14.5268 4.40215 14 5.67392 14 7V13C14 13.5523 14.4477 14 15 14H18V21C18 21.5523 18.4477 22 19 22C19.5523 22 20 21.5523 20 21V3Z" fill="#252A32"/>
</svg>
