<svg width="24" height="24" viewBox="0 0 24 24" fill="none" xmlns="http://www.w3.org/2000/svg">
<path fill-rule="evenodd" clip-rule="evenodd" d="M2 2C2 1.44772 2.44772 1 3 1H6.6C7.11667 1 7.54828 1.3936 7.59577 1.90808L7.91194 5.33333H21C21.3124 5.33333 21.6068 5.47929 21.7959 5.72789C21.985 5.97649 22.0471 6.29918 21.9637 6.60021L19.5637 15.2669C19.4438 15.7001 19.0495 16 18.6 16H7.8C7.28333 16 6.85172 15.6064 6.80423 15.0919L5.68806 3H3C2.44772 3 2 2.55228 2 2ZM8.09656 7.33333L8.71194 14H17.8393L19.6854 7.33333H8.09656ZM8 20C7.72386 20 7.5 20.2239 7.5 20.5C7.5 20.7761 7.72386 21 8 21C8.27614 21 8.5 20.7761 8.5 20.5C8.5 20.2239 8.27614 20 8 20ZM5.5 20.5C5.5 19.1193 6.61929 18 8 18C9.38071 18 10.5 19.1193 10.5 20.5C10.5 21.8807 9.38071 23 8 23C6.61929 23 5.5 21.8807 5.5 20.5ZM17 20C16.7239 20 16.5 20.2239 16.5 20.5C16.5 20.7761 16.7239 21 17 21C17.2761 21 17.5 20.7761 17.5 20.5C17.5 20.2239 17.2761 20 17 20ZM14.5 20.5C14.5 19.1193 15.6193 18 17 18C18.3807 18 19.5 19.1193 19.5 20.5C19.5 21.8807 18.3807 23 17 23C15.6193 23 14.5 21.8807 14.5 20.5Z" fill="#252A32"/>
</svg>
