<svg width="24" height="24" viewBox="0 0 24 24" fill="none" xmlns="http://www.w3.org/2000/svg">
<path fill-rule="evenodd" clip-rule="evenodd" d="M11 4C7.13401 4 4 7.13401 4 11C4 14.866 7.13401 18 11 18C12.886 18 14.5978 17.2541 15.8566 16.0412C15.8828 16.0071 15.9116 15.9742 15.9429 15.9429C15.9742 15.9116 16.0071 15.8828 16.0412 15.8566C17.2541 14.5978 18 12.886 18 11C18 7.13401 14.866 4 11 4ZM18.0319 16.6177C19.2635 15.078 20 13.125 20 11C20 6.02944 15.9706 2 11 2C6.02944 2 2 6.02944 2 11C2 15.9706 6.02944 20 11 20C13.125 20 15.078 19.2635 16.6177 18.0319L20.2929 21.7071C20.6834 22.0977 21.3166 22.0977 21.7071 21.7071C22.0977 21.3166 22.0977 20.6834 21.7071 20.2929L18.0319 16.6177Z" fill="#566A75"/>
</svg>
