<svg width="24" height="24" viewBox="0 0 24 24" fill="none" xmlns="http://www.w3.org/2000/svg">
<defs>
<g id="CHADEMO">
<path d="M12 5.5C12.5523 5.5 13 5.94772 13 6.5C13 7.05228 12.5523 7.5 12 7.5C11.4477 7.5 11 7.05228 11 6.5C11 5.94772 11.4477 5.5 12 5.5Z" fill="currentColor"/>
<path d="M12 16.5C12.5523 16.5 13 16.9477 13 17.5C13 18.0523 12.5523 18.5 12 18.5C11.4477 18.5 11 18.0523 11 17.5C11 16.9477 11.4477 16.5 12 16.5Z" fill="currentColor"/>
<path fill-rule="evenodd" clip-rule="evenodd" d="M18.3295 4.24636C17.7343 4.85701 16.8182 4.99276 16.0789 4.57987C14.8679 3.90359 13.4795 3.51872 12 3.51872C10.5205 3.51872 9.13206 3.90359 7.92109 4.57987C7.18177 4.99276 6.26573 4.85701 5.67052 4.24636L4.40511 2.94813L2.89888 4.49342L4.16429 5.79165C4.75951 6.40231 4.89182 7.3421 4.48937 8.1006C3.83018 9.34298 3.45505 10.7675 3.45505 12.2853C3.45505 17.1269 7.28075 21.0519 12 21.0519C16.7192 21.0519 20.545 17.1269 20.545 12.2853C20.545 10.7675 20.1698 9.34298 19.5106 8.1006C19.1082 7.3421 19.2405 6.40231 19.8357 5.79166L21.1011 4.49342L19.5949 2.94813L18.3295 4.24636ZM21.1784 7.16919L22.4438 5.87096C23.1854 5.11017 23.1854 3.87668 22.4438 3.11589L20.9376 1.57059C20.196 0.809802 18.9937 0.809802 18.2522 1.57059L16.9868 2.86883C15.5043 2.04092 13.8046 1.57059 12 1.57059C10.1954 1.57059 8.49569 2.04092 7.01323 2.86883L5.74782 1.57059C5.00626 0.809802 3.80396 0.809802 3.0624 1.57059L1.55617 3.11589C0.814611 3.87668 0.81461 5.11017 1.55617 5.87096L2.82158 7.16919C2.01461 8.69009 1.55617 10.4339 1.55617 12.2853C1.55617 18.2029 6.23203 23 12 23C17.768 23 22.4438 18.2029 22.4438 12.2853C22.4438 10.4339 21.9854 8.69009 21.1784 7.16919Z" fill="currentColor"/>
<path d="M10 12C10 13.1046 9.10457 14 8 14C6.89543 14 6 13.1046 6 12C6 10.8954 6.89543 10 8 10C9.10457 10 10 10.8954 10 12Z" fill="currentColor"/>
<path d="M18 12C18 13.1046 17.1046 14 16 14C14.8954 14 14 13.1046 14 12C14 10.8954 14.8954 10 16 10C17.1046 10 18 10.8954 18 12Z" fill="currentColor"/>
</g>
</defs>
</svg>
