<svg width="24" height="24" viewBox="0 0 24 24" fill="none" xmlns="http://www.w3.org/2000/svg">
<defs>
<g id="DOMESTIC_J">
<path fill-rule="evenodd" clip-rule="evenodd" d="M2.56862 7.88583C3.02421 6.74685 4.12734 6 5.35405 6H18.6459C19.8726 6 20.9758 6.74685 21.4314 7.88583L22.6314 10.8858C22.9174 11.6011 22.9174 12.3989 22.6314 13.1142L21.4314 16.1142C20.9758 17.2531 19.8726 18 18.6459 18H5.35405C4.12734 18 3.02421 17.2531 2.56862 16.1142L1.36862 13.1142C1.08253 12.3989 1.08253 11.6011 1.36862 10.8858L2.56862 7.88583ZM5.35405 8C4.94515 8 4.57744 8.24895 4.42558 8.62861L3.22558 11.6286C3.13021 11.867 3.13021 12.133 3.22558 12.3714L4.42558 15.3714C4.57744 15.751 4.94515 16 5.35405 16H18.6459C19.0548 16 19.4225 15.751 19.5744 15.3714L20.7744 12.3714C20.8698 12.133 20.8698 11.867 20.7744 11.6286L19.5744 8.62861C19.4225 8.24895 19.0548 8 18.6459 8H5.35405Z" fill="currentColor"/>
<path d="M18 11C18 11.5523 17.5523 12 17 12C16.4477 12 16 11.5523 16 11C16 10.4477 16.4477 10 17 10C17.5523 10 18 10.4477 18 11Z" fill="currentColor"/>
<path d="M13 13C13 13.5523 12.5523 14 12 14C11.4477 14 11 13.5523 11 13C11 12.4477 11.4477 12 12 12C12.5523 12 13 12.4477 13 13Z" fill="currentColor"/>
<path d="M7.99999 11C7.99999 11.5523 7.55227 12 6.99999 12C6.4477 12 5.99999 11.5523 5.99999 11C5.99999 10.4477 6.4477 10 6.99999 10C7.55227 10 7.99999 10.4477 7.99999 11Z" fill="currentColor"/>
</g>
</defs>
</svg>
