<svg width="24" height="24" viewBox="0 0 24 24" fill="none" xmlns="http://www.w3.org/2000/svg">
<defs>
<g id="DOMESTIC_I">
<path fill-rule="evenodd" clip-rule="evenodd" d="M1 4C1 2.34315 2.34315 1 4 1H20C21.6569 1 23 2.34315 23 4V20C23 21.6569 21.6569 23 20 23H4C2.34315 23 1 21.6569 1 20V4ZM4 3C3.44772 3 3 3.44772 3 4V20C3 20.5523 3.44772 21 4 21H20C20.5523 21 21 20.5523 21 20V4C21 3.44772 20.5523 3 20 3H4Z" fill="currentColor"/>
<path fill-rule="evenodd" clip-rule="evenodd" d="M12 13.0607C12.5523 13.0607 13 13.5084 13 14.0607V16.0607C13 16.613 12.5523 17.0607 12 17.0607C11.4477 17.0607 11 16.613 11 16.0607V14.0607C11 13.5084 11.4477 13.0607 12 13.0607Z" fill="currentColor"/>
<path fill-rule="evenodd" clip-rule="evenodd" d="M17.7677 10.6213C17.3772 11.0118 16.7441 11.0118 16.3535 10.6213L14.9393 9.20711C14.5488 8.81659 14.5488 8.18342 14.9393 7.7929C15.3298 7.40237 15.963 7.40237 16.3535 7.7929L17.7677 9.20711C18.1583 9.59763 18.1583 10.2308 17.7677 10.6213Z" fill="currentColor"/>
<path fill-rule="evenodd" clip-rule="evenodd" d="M9.06065 7.79291C9.45117 8.18343 9.45117 8.81659 9.06065 9.20712L7.64643 10.6213C7.25591 11.0119 6.62274 11.0119 6.23222 10.6213C5.8417 10.2308 5.8417 9.59764 6.23222 9.20712L7.64643 7.79291C8.03696 7.40238 8.67012 7.40238 9.06065 7.79291Z" fill="currentColor"/>
</g>
</defs>
</svg>
