<svg width="24" height="24" viewBox="0 0 24 24" fill="none" xmlns="http://www.w3.org/2000/svg">
<defs>
<g id="DOMESTIC_F">
<path fill-rule="evenodd" clip-rule="evenodd" d="M1 12C1 5.92487 5.92487 1 12 1C18.0751 1 23 5.92487 23 12C23 18.0751 18.0751 23 12 23C5.92487 23 1 18.0751 1 12ZM12 3C11.3126 3 10.6432 3.07706 10 3.22302V4C10 4.27614 10.2239 4.5 10.5 4.5H13.5C13.7761 4.5 14 4.27614 14 4V3.22302C13.3568 3.07706 12.6874 3 12 3ZM3 12C3 8.46628 5.03656 5.40822 8 3.93552V4C8 5.38071 9.11929 6.5 10.5 6.5H13.5C14.8807 6.5 16 5.38071 16 4V3.93552C18.9634 5.40822 21 8.46628 21 12C21 15.5337 18.9634 18.5918 16 20.0645V20C16 18.6193 14.8807 17.5 13.5 17.5H10.5C9.11929 17.5 8 18.6193 8 20V20.0645C5.03656 18.5918 3 15.5337 3 12ZM10 20.777C10.6432 20.9229 11.3126 21 12 21C12.6874 21 13.3568 20.9229 14 20.777V20C14 19.7239 13.7761 19.5 13.5 19.5H10.5C10.2239 19.5 10 19.7239 10 20V20.777Z" fill="currentColor"/>
<path d="M10 12C10 13.1046 9.10457 14 8 14C6.89543 14 6 13.1046 6 12C6 10.8954 6.89543 10 8 10C9.10457 10 10 10.8954 10 12Z" fill="currentColor"/>
<path d="M18 12C18 13.1046 17.1046 14 16 14C14.8954 14 14 13.1046 14 12C14 10.8954 14.8954 10 16 10C17.1046 10 18 10.8954 18 12Z" fill="currentColor"/>
</g>
</defs>
</svg>
