<svg width="24" height="24" viewBox="0 0 24 24" fill="none" xmlns="http://www.w3.org/2000/svg">
<defs>
<g id="DOMESTIC_A">
<path fill-rule="evenodd" clip-rule="evenodd" d="M1 9C1 7.34315 2.34315 6 4 6H20C21.6569 6 23 7.34315 23 9V15C23 16.6569 21.6569 18 20 18H4C2.34315 18 1 16.6569 1 15V9ZM4 8C3.44772 8 3 8.44772 3 9V15C3 15.5523 3.44772 16 4 16H20C20.5523 16 21 15.5523 21 15V9C21 8.44772 20.5523 8 20 8H4Z" fill="currentColor"/>
<path fill-rule="evenodd" clip-rule="evenodd" d="M6 10C6.55228 10 7 10.4477 7 11V13C7 13.5523 6.55228 14 6 14C5.44772 14 5 13.5523 5 13V11C5 10.4477 5.44772 10 6 10Z" fill="currentColor"/>
<path fill-rule="evenodd" clip-rule="evenodd" d="M18 10C18.5523 10 19 10.4477 19 11V13C19 13.5523 18.5523 14 18 14C17.4477 14 17 13.5523 17 13V11C17 10.4477 17.4477 10 18 10Z" fill="currentColor"/>
</g>
</defs>
</svg>
