<svg width="24" height="24" viewBox="0 0 24 24" fill="none" xmlns="http://www.w3.org/2000/svg">
<defs>
<g id="DOMESTIC_L">
<path fill-rule="evenodd" clip-rule="evenodd" d="M1 9C1 7.34315 2.34315 6 4 6H20C21.6569 6 23 7.34315 23 9V15C23 16.6569 21.6569 18 20 18H4C2.34315 18 1 16.6569 1 15V9ZM4 8C3.44772 8 3 8.44772 3 9V15C3 15.5523 3.44772 16 4 16H20C20.5523 16 21 15.5523 21 15V9C21 8.44772 20.5523 8 20 8H4Z" fill="currentColor"/>
<path d="M18 12C18 12.5523 17.5523 13 17 13C16.4477 13 16 12.5523 16 12C16 11.4477 16.4477 11 17 11C17.5523 11 18 11.4477 18 12Z" fill="currentColor"/>
<path d="M13 12C13 12.5523 12.5523 13 12 13C11.4477 13 11 12.5523 11 12C11 11.4477 11.4477 11 12 11C12.5523 11 13 11.4477 13 12Z" fill="currentColor"/>
<path d="M8 12C8 12.5523 7.55228 13 7 13C6.44772 13 6 12.5523 6 12C6 11.4477 6.44772 11 7 11C7.55228 11 8 11.4477 8 12Z" fill="currentColor"/>
</g>
</defs>
</svg>
