<svg width="24" height="24" viewBox="0 0 24 24" fill="none" xmlns="http://www.w3.org/2000/svg">
<defs>
<g id="DOMESTIC_H">
<path fill-rule="evenodd" clip-rule="evenodd" d="M1 12C1 5.92487 5.92487 0.999999 12 0.999999C18.0751 0.999999 23 5.92487 23 12C23 18.0751 18.0751 23 12 23C5.92487 23 1 18.0751 1 12ZM12 3C7.02944 3 3 7.02944 3 12C3 16.9706 7.02944 21 12 21C16.9706 21 21 16.9706 21 12C21 7.02944 16.9706 3 12 3Z" fill="currentColor"/>
<path fill-rule="evenodd" clip-rule="evenodd" d="M12 13.0607C12.5523 13.0607 13 13.5084 13 14.0607V16.0607C13 16.613 12.5523 17.0607 12 17.0607C11.4477 17.0607 11 16.613 11 16.0607V14.0607C11 13.5084 11.4477 13.0607 12 13.0607Z" fill="currentColor"/>
<path fill-rule="evenodd" clip-rule="evenodd" d="M17.0607 8.79289C17.4512 9.18341 17.4512 9.81658 17.0607 10.2071L15.6465 11.6213C15.2559 12.0118 14.6228 12.0118 14.2322 11.6213C13.8417 11.2308 13.8417 10.5976 14.2322 10.2071L15.6465 8.79289C16.037 8.40236 16.6701 8.40236 17.0607 8.79289Z" fill="currentColor"/>
<path fill-rule="evenodd" clip-rule="evenodd" d="M9.76776 11.6213C9.37723 12.0119 8.74407 12.0119 8.35354 11.6213L6.93933 10.2071C6.54881 9.81659 6.54881 9.18343 6.93933 8.7929C7.32985 8.40238 7.96302 8.40238 8.35354 8.7929L9.76776 10.2071C10.1583 10.5976 10.1583 11.2308 9.76776 11.6213Z" fill="currentColor"/>
</g>
</defs>
</svg>
