<svg width="24" height="24" viewBox="0 0 24 24" fill="none" xmlns="http://www.w3.org/2000/svg">
<defs>
<g id="IEC_62196_T3A_C">
<path fill-rule="evenodd" clip-rule="evenodd" d="M4 9C4 4.58172 7.58172 1 12 1C16.4183 1 20 4.58172 20 9V15C20 19.4183 16.4183 23 12 23C7.58172 23 4 19.4183 4 15V9ZM10.5 3.18903C7.91216 3.85509 6 6.20424 6 9V15C6 18.3137 8.68629 21 12 21C15.3137 21 18 18.3137 18 15V9C18 6.20424 16.0878 3.85509 13.5 3.18903V4.5C13.5 5.32843 12.8284 6 12 6C11.1716 6 10.5 5.32843 10.5 4.5V3.18903Z" fill="currentColor"/>
<path fill-rule="evenodd" clip-rule="evenodd" d="M12 19C12.2761 19 12.5 18.7761 12.5 18.5C12.5 18.2239 12.2761 18 12 18C11.7239 18 11.5 18.2239 11.5 18.5C11.5 18.7761 11.7239 19 12 19ZM12 20C12.8284 20 13.5 19.3284 13.5 18.5C13.5 17.6716 12.8284 17 12 17C11.1716 17 10.5 17.6716 10.5 18.5C10.5 19.3284 11.1716 20 12 20Z" fill="currentColor"/>
<path d="M10.5 7.5C10.5 8.32843 9.82843 9 9 9C8.17157 9 7.5 8.32843 7.5 7.5C7.5 6.67157 8.17157 6 9 6C9.82843 6 10.5 6.67157 10.5 7.5Z" fill="currentColor"/>
<path fill-rule="evenodd" clip-rule="evenodd" d="M9 16C9.27614 16 9.5 15.7761 9.5 15.5C9.5 15.2239 9.27614 15 9 15C8.72386 15 8.5 15.2239 8.5 15.5C8.5 15.7761 8.72386 16 9 16ZM9 17C9.82843 17 10.5 16.3284 10.5 15.5C10.5 14.6716 9.82843 14 9 14C8.17157 14 7.5 14.6716 7.5 15.5C7.5 16.3284 8.17157 17 9 17Z" fill="currentColor"/>
<path fill-rule="evenodd" clip-rule="evenodd" d="M9 12C9.27614 12 9.5 11.7761 9.5 11.5C9.5 11.2239 9.27614 11 9 11C8.72386 11 8.5 11.2239 8.5 11.5C8.5 11.7761 8.72386 12 9 12ZM9 13C9.82843 13 10.5 12.3284 10.5 11.5C10.5 10.6716 9.82843 10 9 10C8.17157 10 7.5 10.6716 7.5 11.5C7.5 12.3284 8.17157 13 9 13Z" fill="currentColor"/>
<path d="M16.5 7.5C16.5 8.32843 15.8284 9 15 9C14.1716 9 13.5 8.32843 13.5 7.5C13.5 6.67157 14.1716 6 15 6C15.8284 6 16.5 6.67157 16.5 7.5Z" fill="currentColor"/>
<path fill-rule="evenodd" clip-rule="evenodd" d="M15 16C15.2761 16 15.5 15.7761 15.5 15.5C15.5 15.2239 15.2761 15 15 15C14.7239 15 14.5 15.2239 14.5 15.5C14.5 15.7761 14.7239 16 15 16ZM15 17C15.8284 17 16.5 16.3284 16.5 15.5C16.5 14.6716 15.8284 14 15 14C14.1716 14 13.5 14.6716 13.5 15.5C13.5 16.3284 14.1716 17 15 17Z" fill="currentColor"/>
<path fill-rule="evenodd" clip-rule="evenodd" d="M15 12C15.2761 12 15.5 11.7761 15.5 11.5C15.5 11.2239 15.2761 11 15 11C14.7239 11 14.5 11.2239 14.5 11.5C14.5 11.7761 14.7239 12 15 12ZM15 13C15.8284 13 16.5 12.3284 16.5 11.5C16.5 10.6716 15.8284 10 15 10C14.1716 10 13.5 10.6716 13.5 11.5C13.5 12.3284 14.1716 13 15 13Z" fill="currentColor"/>
</g>
</defs>
</svg>
