<svg width="24" height="24" viewBox="0 0 24 24" fill="none" xmlns="http://www.w3.org/2000/svg">
<defs>
<g id="IEC_62196_T1_COMBO">
<path d="M11.2727 6.45455C11.2727 7.25787 10.6215 7.90909 9.81815 7.90909C9.01483 7.90909 8.36361 7.25787 8.36361 6.45455C8.36361 5.65122 9.01483 5 9.81815 5C10.6215 5 11.2727 5.65122 11.2727 6.45455Z" fill="currentColor"/>
<path d="M15.6364 6.45455C15.6364 7.25787 14.9852 7.90909 14.1819 7.90909C13.3786 7.90909 12.7273 7.25787 12.7273 6.45455C12.7273 5.65122 13.3786 5 14.1819 5C14.9852 5 15.6364 5.65122 15.6364 6.45455Z" fill="currentColor"/>
<path d="M16.7273 9.72727C16.7273 10.1289 16.4017 10.4545 16 10.4545C15.5984 10.4545 15.2727 10.1289 15.2727 9.72727C15.2727 9.32561 15.5984 9 16 9C16.4017 9 16.7273 9.32561 16.7273 9.72727Z" fill="currentColor"/>
<path d="M8.7273 9.72727C8.7273 10.1289 8.40168 10.4545 8.00002 10.4545C7.59836 10.4545 7.27275 10.1289 7.27275 9.72727C7.27275 9.32561 7.59836 9 8.00002 9C8.40168 9 8.7273 9.32561 8.7273 9.72727Z" fill="currentColor"/>
<path d="M13.4546 11.5455C13.4546 12.3488 12.8033 13 12 13C11.1967 13 10.5455 12.3488 10.5455 11.5455C10.5455 10.7421 11.1967 10.0909 12 10.0909C12.8033 10.0909 13.4546 10.7421 13.4546 11.5455Z" fill="currentColor"/>
<path fill-rule="evenodd" clip-rule="evenodd" d="M17.6573 16C19.6963 14.35 21 11.8273 21 9C21 4.02944 16.9706 0 12 0C7.02944 0 3 4.02944 3 9C3 11.8273 4.30367 14.35 6.34267 16H6C3.79086 16 2 17.7909 2 20C2 22.2091 3.79086 24 6 24H18C20.2091 24 22 22.2091 22 20C22 17.7909 20.2091 16 18 16H17.6573ZM19 9C19 12.866 15.866 16 12 16C8.13401 16 5 12.866 5 9C5 5.13401 8.13401 2 12 2C15.866 2 19 5.13401 19 9ZM6 18C4.89543 18 4 18.8954 4 20C4 21.1046 4.89543 22 6 22H18C19.1046 22 20 21.1046 20 20C20 18.8954 19.1046 18 18 18H6Z" fill="currentColor"/>
<path d="M7 20C7 20.5523 6.55228 21 6 21C5.44772 21 5 20.5523 5 20C5 19.4477 5.44772 19 6 19C6.55228 19 7 19.4477 7 20Z" fill="currentColor"/>
<path d="M19 20C19 20.5523 18.5523 21 18 21C17.4477 21 17 20.5523 17 20C17 19.4477 17.4477 19 18 19C18.5523 19 19 19.4477 19 20Z" fill="currentColor"/>
</g>
</defs>
</svg>
