<svg width="24" height="24" viewBox="0 0 24 24" fill="none" xmlns="http://www.w3.org/2000/svg">
<defs>
<g id="IEC_62196_T1">
<path fill-rule="evenodd" clip-rule="evenodd" d="M12 3C7.02944 3 3 7.02944 3 12C3 16.9706 7.02944 21 12 21C16.9706 21 21 16.9706 21 12C21 7.02944 16.9706 3 12 3ZM1 12C1 5.92487 5.92487 1 12 1C18.0751 1 23 5.92487 23 12C23 18.0751 18.0751 23 12 23C5.92487 23 1 18.0751 1 12Z" fill="currentColor"/>
<path d="M11 8.5C11 9.60457 10.1046 10.5 9 10.5C7.89543 10.5 7 9.60457 7 8.5C7 7.39543 7.89543 6.5 9 6.5C10.1046 6.5 11 7.39543 11 8.5Z" fill="currentColor"/>
<path d="M17 8.5C17 9.60457 16.1046 10.5 15 10.5C13.8954 10.5 13 9.60457 13 8.5C13 7.39543 13.8954 6.5 15 6.5C16.1046 6.5 17 7.39543 17 8.5Z" fill="currentColor"/>
<path d="M18.5 13C18.5 13.5523 18.0523 14 17.5 14C16.9477 14 16.5 13.5523 16.5 13C16.5 12.4477 16.9477 12 17.5 12C18.0523 12 18.5 12.4477 18.5 13Z" fill="currentColor"/>
<path d="M7.5 13C7.5 13.5523 7.05228 14 6.5 14C5.94772 14 5.5 13.5523 5.5 13C5.5 12.4477 5.94772 12 6.5 12C7.05228 12 7.5 12.4477 7.5 13Z" fill="currentColor"/>
<path d="M14 15.5C14 16.6046 13.1046 17.5 12 17.5C10.8954 17.5 10 16.6046 10 15.5C10 14.3954 10.8954 13.5 12 13.5C13.1046 13.5 14 14.3954 14 15.5Z" fill="currentColor"/>
</g>
</defs>
</svg>
