<svg width="24" height="24" viewBox="0 0 24 24" fill="none" xmlns="http://www.w3.org/2000/svg">
<defs>
<g id="IEC_62196_T2_COMBO">
<path d="M10.6667 4.55555C10.6667 5.29193 10.0697 5.88889 9.33334 5.88889C8.59696 5.88889 8.00001 5.29193 8.00001 4.55555C8.00001 3.81917 8.59696 3.22222 9.33334 3.22222C10.0697 3.22222 10.6667 3.81917 10.6667 4.55555Z" fill="currentColor"/>
<path d="M10.6667 12.5556C10.6667 13.2919 10.0697 13.8889 9.33334 13.8889C8.59696 13.8889 8.00001 13.2919 8.00001 12.5556C8.00001 11.8192 8.59696 11.2222 9.33334 11.2222C10.0697 11.2222 10.6667 11.8192 10.6667 12.5556Z" fill="currentColor"/>
<path d="M8.00003 8.55555C8.00003 9.29193 7.40308 9.88889 6.6667 9.88889C5.93032 9.88889 5.33336 9.29193 5.33336 8.55555C5.33336 7.81917 5.93032 7.22222 6.6667 7.22222C7.40308 7.22222 8.00003 7.81917 8.00003 8.55555Z" fill="currentColor"/>
<path d="M16 4.55555C16 5.29193 15.4031 5.88889 14.6667 5.88889C13.9303 5.88889 13.3334 5.29193 13.3334 4.55555C13.3334 3.81917 13.9303 3.22222 14.6667 3.22222C15.4031 3.22222 16 3.81917 16 4.55555Z" fill="currentColor"/>
<path d="M16 12.5556C16 13.2919 15.4031 13.8889 14.6667 13.8889C13.9303 13.8889 13.3334 13.2919 13.3334 12.5556C13.3334 11.8192 13.9303 11.2222 14.6667 11.2222C15.4031 11.2222 16 11.8192 16 12.5556Z" fill="currentColor"/>
<path d="M13.3333 8.55555C13.3333 9.29193 12.7363 9.88889 12 9.88889C11.2636 9.88889 10.6666 9.29193 10.6666 8.55555C10.6666 7.81917 11.2636 7.22222 12 7.22222C12.7363 7.22222 13.3333 7.81917 13.3333 8.55555Z" fill="currentColor"/>
<path d="M18.6667 8.55555C18.6667 9.29193 18.0697 9.88889 17.3333 9.88889C16.597 9.88889 16 9.29193 16 8.55555C16 7.81917 16.597 7.22222 17.3333 7.22222C18.0697 7.22222 18.6667 7.81917 18.6667 8.55555Z" fill="currentColor"/>
<path fill-rule="evenodd" clip-rule="evenodd" d="M4.11115 8.11111C4.11115 5.64758 5.2392 3.44827 7.01073 2H16.9885C18.7605 3.4483 19.8889 5.64746 19.8889 8.11111C19.8889 12.468 16.3569 16 12 16C7.64312 16 4.11115 12.468 4.11115 8.11111ZM17.9638 16C20.3484 14.1945 21.8889 11.3327 21.8889 8.11111C21.8889 5.00882 20.4589 2.24022 18.2265 0.428874C17.8652 0.135757 17.4258 0 16.9996 0H6.99964C6.57342 0 6.13389 0.135789 5.77261 0.428985C3.54048 2.24044 2.11115 5.00923 2.11115 8.11111C2.11115 11.3327 3.65168 14.1945 6.03627 16H6C3.79086 16 2 17.7909 2 20C2 22.2091 3.79086 24 6 24H18C20.2091 24 22 22.2091 22 20C22 17.7909 20.2091 16 18 16H17.9638ZM6 18C4.89543 18 4 18.8954 4 20C4 21.1046 4.89543 22 6 22H18C19.1046 22 20 21.1046 20 20C20 18.8954 19.1046 18 18 18H6Z" fill="currentColor"/>
<path d="M7.00003 20C7.00003 20.5523 6.55231 21 6.00003 21C5.44774 21 5.00003 20.5523 5.00003 20C5.00003 19.4477 5.44774 19 6.00003 19C6.55231 19 7.00003 19.4477 7.00003 20Z" fill="currentColor"/>
<path d="M19 20C19 20.5523 18.5523 21 18 21C17.4477 21 17 20.5523 17 20C17 19.4477 17.4477 19 18 19C18.5523 19 19 19.4477 19 20Z" fill="currentColor"/>
</g>
</defs>
</svg>
