<svg width="24" height="24" viewBox="0 0 24 24" fill="none" xmlns="http://www.w3.org/2000/svg">
<defs>
<g id="IEC_62196_T2">
<path d="M10.5 7C10.5 7.82843 9.82843 8.5 9 8.5C8.17157 8.5 7.5 7.82843 7.5 7C7.5 6.17157 8.17157 5.5 9 5.5C9.82843 5.5 10.5 6.17157 10.5 7Z" fill="currentColor"/>
<path d="M10.5 16C10.5 16.8284 9.82843 17.5 9 17.5C8.17157 17.5 7.5 16.8284 7.5 16C7.5 15.1716 8.17157 14.5 9 14.5C9.82843 14.5 10.5 15.1716 10.5 16Z" fill="currentColor"/>
<path d="M7.5 11.5C7.5 12.3284 6.82843 13 6 13C5.17157 13 4.5 12.3284 4.5 11.5C4.5 10.6716 5.17157 10 6 10C6.82843 10 7.5 10.6716 7.5 11.5Z" fill="currentColor"/>
<path d="M16.5 7C16.5 7.82843 15.8284 8.5 15 8.5C14.1716 8.5 13.5 7.82843 13.5 7C13.5 6.17157 14.1716 5.5 15 5.5C15.8284 5.5 16.5 6.17157 16.5 7Z" fill="currentColor"/>
<path d="M16.5 16C16.5 16.8284 15.8284 17.5 15 17.5C14.1716 17.5 13.5 16.8284 13.5 16C13.5 15.1716 14.1716 14.5 15 14.5C15.8284 14.5 16.5 15.1716 16.5 16Z" fill="currentColor"/>
<path d="M13.5 11.5C13.5 12.3284 12.8284 13 12 13C11.1716 13 10.5 12.3284 10.5 11.5C10.5 10.6716 11.1716 10 12 10C12.8284 10 13.5 10.6716 13.5 11.5Z" fill="currentColor"/>
<path d="M19.5 11.5C19.5 12.3284 18.8284 13 18 13C17.1716 13 16.5 12.3284 16.5 11.5C16.5 10.6716 17.1716 10 18 10C18.8284 10 19.5 10.6716 19.5 11.5Z" fill="currentColor"/>
<path fill-rule="evenodd" clip-rule="evenodd" d="M6.34261 4C4.3019 5.65157 3 8.1734 3 11C3 15.9706 7.02944 20 12 20C16.9706 20 21 15.9706 21 11C21 8.17325 19.6976 5.6516 17.6565 4H6.34261ZM5.10861 2.42583C5.46836 2.13635 5.90578 2 6.33283 2H17.6662C18.0932 2 18.5306 2.13631 18.8903 2.42572C21.3943 4.44018 23 7.53268 23 11C23 17.0751 18.0751 22 12 22C5.92487 22 1 17.0751 1 11C1 7.53312 2.60499 4.44041 5.10861 2.42583Z" fill="currentColor"/>
</g>
</defs>
</svg>
