<svg width="24" height="24" viewBox="0 0 24 24" fill="none" xmlns="http://www.w3.org/2000/svg">
<defs>
<g id="TESLA_S">
<path d="M10.5 6C10.5 6.82843 9.82843 7.5 9 7.5C8.17157 7.5 7.5 6.82843 7.5 6C7.5 5.17157 8.17157 4.5 9 4.5C9.82843 4.5 10.5 5.17157 10.5 6Z" fill="currentColor"/>
<path d="M10.5 15C10.5 15.8284 9.82843 16.5 9 16.5C8.17157 16.5 7.5 15.8284 7.5 15C7.5 14.1716 8.17157 13.5 9 13.5C9.82843 13.5 10.5 14.1716 10.5 15Z" fill="currentColor"/>
<path d="M7.5 10.5C7.5 11.3284 6.82843 12 6 12C5.17157 12 4.5 11.3284 4.5 10.5C4.5 9.67157 5.17157 9 6 9C6.82843 9 7.5 9.67157 7.5 10.5Z" fill="currentColor"/>
<path d="M16.5 6C16.5 6.82843 15.8284 7.5 15 7.5C14.1716 7.5 13.5 6.82843 13.5 6C13.5 5.17157 14.1716 4.5 15 4.5C15.8284 4.5 16.5 5.17157 16.5 6Z" fill="currentColor"/>
<path d="M13.5 10.5C13.5 11.3284 12.8284 12 12 12C11.1716 12 10.5 11.3284 10.5 10.5C10.5 9.67157 11.1716 9 12 9C12.8284 9 13.5 9.67157 13.5 10.5Z" fill="currentColor"/>
<path fill-rule="evenodd" clip-rule="evenodd" d="M6.34261 3C4.3019 4.65157 3 7.1734 3 10C3 13.7637 5.31054 16.9901 8.59437 18.3336C8.88858 18.454 9.19055 18.5592 9.49933 18.6483C10.03 18.8014 10.336 19.3557 10.1829 19.8864C10.0297 20.417 9.47543 20.723 8.9448 20.5699C8.56677 20.4608 8.19711 20.332 7.83704 20.1847C3.82764 18.5443 1 14.6036 1 10C1 6.53312 2.60499 3.44041 5.10861 1.42583C5.46836 1.13635 5.90578 1 6.33283 1H17.6662C18.0932 1 18.5306 1.13631 18.8903 1.42572C21.0713 3.18035 22.5712 5.75271 22.9216 8.6809C22.9872 9.22927 22.5959 9.72701 22.0475 9.79262C21.4991 9.85824 21.0014 9.46688 20.9358 8.91851C20.6507 6.53632 19.4339 4.43822 17.6565 3H6.34261Z" fill="currentColor"/>
<path fill-rule="evenodd" clip-rule="evenodd" d="M18 23C21.3137 23 24 20.3137 24 17C24 13.6863 21.3137 11 18 11C14.6863 11 12 13.6863 12 17C12 20.3137 14.6863 23 18 23ZM18 14.4428C18.9962 14.4349 20.1365 14.6038 21.3039 15.1351C21.4599 14.8419 21.5 14.7122 21.5 14.7122C20.2239 14.185 19.0289 14.0045 17.9999 14C16.9709 14.0045 15.7759 14.185 14.5 14.7122C14.5 14.7122 14.5569 14.8719 14.696 15.1351C15.8631 14.6038 17.0037 14.4349 18 14.4428ZM18.0007 21L18.9583 15.5351C19.871 15.5351 20.1589 15.6367 20.2005 16.0513C20.2005 16.0513 20.8128 15.8196 21.1216 15.3491C19.9165 14.7824 18.7057 14.7569 18.7057 14.7569L18 15.6291L17.2942 14.7567C17.2942 14.7567 16.0833 14.7823 14.8784 15.349C15.1869 15.8195 15.7994 16.0511 15.7994 16.0511C15.8413 15.6366 16.1288 15.535 17.0354 15.5343L18.0007 21Z" fill="currentColor"/>
</g>
</defs>
</svg>
