<svg width="84" height="18" viewBox="0 0 84 18" fill="none" xmlns="http://www.w3.org/2000/svg">
<path fill-rule="evenodd" clip-rule="evenodd" d="M0 9.00004C0 11.6674 2.19744 13.644 4.91905 13.644C6.57217 13.644 7.82209 12.9531 8.60833 11.7825C8.76961 11.5523 8.66881 11.3412 8.44705 11.1493L7.53985 10.4201C7.37857 10.2858 7.09633 10.3241 6.95521 10.4776C6.55201 10.919 6.00769 11.4563 4.97953 11.4563C3.52801 11.4563 2.54016 10.3817 2.54016 9.00004C2.54016 7.63757 3.54817 6.56295 4.99969 6.56295C5.86657 6.56295 6.41089 6.92756 6.85441 7.33054C7.03585 7.50325 7.25761 7.59919 7.45921 7.38811L8.30593 6.50538C8.50753 6.31348 8.60833 6.06402 8.40673 5.87212C7.51969 4.97021 6.39073 4.37533 4.93921 4.37533C2.17728 4.37533 0 6.39024 0 9.00004ZM9.73712 13.0106C9.73712 13.2409 9.95889 13.4328 10.1806 13.4328H11.7733C12.1362 13.4328 12.2571 13.2601 12.2571 13.0106V8.11724C12.499 7.21533 13.1038 6.56288 14.1925 6.56288C15.3013 6.56288 15.8859 7.31127 15.8859 8.53942V13.0106C15.8859 13.2409 16.0875 13.4328 16.3295 13.4328H17.9624C18.1842 13.4328 18.4059 13.2409 18.4059 13.0106V8.55861C18.4059 6.3326 17.5995 4.37525 14.636 4.37525C13.5272 4.37525 12.7208 4.73985 12.2571 5.12365V0.422173C12.2571 0.211087 12.0555 0 11.8136 0H10.1806C9.95889 0 9.73712 0.211087 9.73712 0.422173V13.0106ZM19.4731 10.612C19.4731 9.03842 20.8239 7.82947 23.1826 7.82947C24.1301 7.82947 24.9768 8.07894 24.9768 8.07894C25.0172 6.94674 24.6744 6.40943 23.6866 6.40943C22.8399 6.40943 21.6101 6.58214 21.0658 6.73566C20.7634 6.83161 20.5819 6.62052 20.5416 6.35186L20.34 5.354C20.2594 5.02777 20.4408 4.87426 20.6424 4.81669C20.844 4.73993 22.3157 4.37533 23.8277 4.37533C26.7308 4.37533 27.3356 5.81455 27.3356 8.23246V13.0107C27.3356 13.241 27.134 13.4329 26.892 13.4329H26.2066C26.0453 13.4329 25.9244 13.3753 25.8034 13.1258L25.5413 12.5309C24.997 13.0299 24.0696 13.644 22.6181 13.644C20.7634 13.644 19.4731 12.5118 19.4731 10.612ZM21.8926 10.612C21.8926 11.3604 22.3764 11.8594 23.2433 11.8594C24.0699 11.8594 24.7956 11.2453 24.9166 10.9191V9.61418C24.9166 9.61418 24.2916 9.34552 23.5457 9.34552C22.4772 9.34552 21.8926 9.82527 21.8926 10.612ZM29.0884 13.0107V4.9894C29.0884 4.73993 29.3101 4.56722 29.5319 4.56722H30.2778C30.4996 4.56722 30.6004 4.66317 30.681 4.85507L31.0237 5.7186C31.3463 5.27724 32.2132 4.37533 33.6445 4.37533C34.7533 4.37533 35.6605 4.66317 35.3985 5.23886L34.7937 6.54376C34.6929 6.75485 34.4711 6.83161 34.2493 6.73566C34.0276 6.63971 33.8058 6.56295 33.3825 6.56295C32.3745 6.56295 31.7697 7.17702 31.6084 7.48406V13.0107C31.6084 13.3369 31.3866 13.4329 31.0842 13.4329H29.5319C29.3101 13.4329 29.0884 13.241 29.0884 13.0107ZM42.1918 10.9571V7.79079C41.9902 7.29186 41.345 6.56265 40.1354 6.56265C38.6839 6.56265 37.938 7.77161 37.938 9.01894C37.938 10.2663 38.7242 11.456 40.2564 11.456C41.4257 11.456 42.1918 10.9571 42.1918 10.9571ZM44.7118 4.9894V13.5288C44.7118 16.3881 42.6152 17.8273 40.075 17.8273C38.5428 17.8273 37.172 17.1557 36.7284 16.8294C36.5873 16.7143 36.5268 16.484 36.6276 16.3305L37.2324 15.0832C37.3131 14.9105 37.5752 14.8529 37.7768 14.968C38.1195 15.1599 39.0267 15.6397 39.9944 15.6397C41.4257 15.6397 42.1918 15.1791 42.1918 13.5288V13.2793C41.7685 13.4329 40.8814 13.6439 39.954 13.6439C37.172 13.6439 35.3374 11.6098 35.3374 9.01923C35.3374 6.33267 37.2526 4.37533 39.7928 4.37533C41.7685 4.37533 42.8369 5.69941 42.8369 5.69941L43.0789 4.9894C43.1595 4.73993 43.3006 4.56722 43.5224 4.56722H44.2683C44.5102 4.56722 44.7118 4.75912 44.7118 4.9894ZM45.981 9.00004C45.981 6.50538 47.9163 4.37533 50.6782 4.37533C53.0974 4.37533 54.9522 6.08321 54.9522 8.48192C54.9522 8.61625 54.932 8.92328 54.9118 9.05761C54.8917 9.28789 54.6699 9.4606 54.4683 9.4606H48.501C48.5211 10.5544 49.4686 11.5139 50.8194 11.5139C51.7467 11.5139 52.3918 11.1877 52.8152 10.8614C53.037 10.6887 53.2789 10.6695 53.42 10.8614L54.2062 11.8593C54.3675 12.032 54.3877 12.2431 54.1659 12.435C53.3595 13.0874 52.2104 13.644 50.6984 13.644C47.9163 13.644 45.981 11.5331 45.981 9.00004ZM48.6426 7.88756H52.4125C52.3722 7.02367 51.6464 6.35176 50.6183 6.35176C49.4893 6.35176 48.7635 7.00447 48.6426 7.88756ZM56.7251 10.7851C56.7251 12.3202 57.2493 13.6443 59.3257 13.6443C60.2934 13.6443 61.624 13.2413 61.9465 13.0686C62.1683 12.9535 62.2691 12.7808 62.2086 12.5505L61.9465 11.3799C61.9062 11.1688 61.6845 11.0537 61.4224 11.1497C61.1805 11.2264 60.4144 11.4375 60.0112 11.4375C59.5475 11.4375 59.2451 11.3032 59.2451 10.7083V6.71684H61.4224C61.6643 6.71684 61.8659 6.50575 61.8659 6.29466V4.98976C61.8659 4.7403 61.6643 4.56759 61.4224 4.56759H59.2451V2.11131C59.2451 1.88103 59.0637 1.68914 58.8217 1.68914H57.1686C56.9469 1.68914 56.7251 1.88103 56.7251 2.11131V4.56759H55.8179C55.576 4.56759 55.3945 4.7403 55.3945 4.98976V6.29466C55.3945 6.50575 55.576 6.71684 55.8179 6.71684H56.7251V10.7851ZM63.2168 13.0107C63.2168 13.241 63.4386 13.4329 63.6603 13.4329H65.2126C65.515 13.4329 65.7368 13.3369 65.7368 13.0107V7.48406C65.8981 7.17702 66.5029 6.56295 67.5109 6.56295C67.9342 6.56295 68.156 6.63971 68.3778 6.73566C68.5995 6.83161 68.8213 6.75485 68.9221 6.54376L69.5269 5.23886C69.789 4.66317 68.8818 4.37533 67.773 4.37533C66.3416 4.37533 65.4747 5.27724 65.1522 5.7186L64.8094 4.85507C64.7288 4.66317 64.628 4.56722 64.4062 4.56722H63.6603C63.4386 4.56722 63.2168 4.73993 63.2168 4.9894V13.0107ZM70.272 13.0105C70.272 13.2408 70.4937 13.4327 70.7155 13.4327H72.3485C72.5702 13.4327 72.792 13.2408 72.792 13.0105V4.98921C72.792 4.73974 72.5702 4.56703 72.3485 4.56703H70.7155C70.4937 4.56703 70.272 4.73974 70.272 4.98921V13.0105ZM83.9999 9.01923C83.9999 11.6098 82.1653 13.6439 79.3833 13.6439C78.4559 13.6439 77.5689 13.4329 77.1455 13.2793V17.5778C77.1455 17.7889 76.9237 18 76.702 18H75.069C74.8271 18 74.6255 17.7889 74.6255 17.5778V4.9894C74.6255 4.75912 74.8271 4.56722 75.069 4.56722H75.8149C76.0367 4.56722 76.1778 4.73993 76.2585 4.9894L76.5004 5.69941C76.5004 5.69941 77.5689 4.37533 79.5445 4.37533C82.0847 4.37533 83.9999 6.33267 83.9999 9.01923ZM77.146 7.79079V10.9571C77.146 10.9571 77.9121 11.456 79.0814 11.456C80.6135 11.456 81.3998 10.2663 81.3998 9.01894C81.3998 7.77161 80.6538 6.56265 79.2023 6.56265C77.9927 6.56265 77.3476 7.29186 77.146 7.79079Z" fill="#637282"/>
</svg>
