<svg width="30" height="41" viewBox="0 0 30 41" fill="none" xmlns="http://www.w3.org/2000/svg">
<g filter="url(#filter0_d)">
<path d="M18.2422 28.4237H17.9823L17.833 28.6364L15.4288 32.0609C15.2123 32.3693 14.7573 32.3753 14.5327 32.0726L11.9753 28.6257L11.8254 28.4237H11.5738H8.1001C7.54781 28.4237 7.1001 27.9759 7.1001 27.4237V7.33337C7.1001 6.78109 7.54781 6.33337 8.1001 6.33337H21.9001C22.4524 6.33337 22.9001 6.78109 22.9001 7.33337V27.4237C22.9001 27.9759 22.4524 28.4237 21.9001 28.4237H18.2422Z" fill="#0078FF" stroke="#005EE5"/>
<path d="M19.4376 13.0125C19.7143 13.0948 19.8172 13.4453 19.6316 13.6733L16.4517 17.5808L18.866 18.2991C19.2013 18.3988 19.2584 18.866 18.9577 19.0493L12.6235 22.9095C12.2723 23.1236 11.8749 22.716 12.0779 22.3498L13.9277 19.0132L12.1382 18.4808C11.8756 18.4027 11.7658 18.0797 11.9231 17.8483L13.222 15.9375H10.6691C10.4517 15.9375 10.2754 15.7626 10.2754 15.5469C10.2754 15.3311 10.4517 15.1563 10.6691 15.1563L15.9004 15.1562C16.1075 15.1562 16.2754 14.9814 16.2754 14.7656C16.2754 14.5499 16.1075 14.375 15.9004 14.375H13.0316C12.8142 14.375 12.6379 14.2001 12.6379 13.9844C12.6379 13.7686 12.8142 13.5937 13.0316 13.5937H14.8153L15.7589 12.2058C15.8563 12.0625 16.0305 11.9989 16.1931 12.0473L19.4376 13.0125Z" fill="white"/>
</g>
<defs>
<filter id="filter0_d" x="-5" y="-4" width="40" height="47" filterUnits="userSpaceOnUse" color-interpolation-filters="sRGB">
<feFlood flood-opacity="0" result="BackgroundImageFix"/>
<feColorMatrix in="SourceAlpha" type="matrix" values="0 0 0 0 0 0 0 0 0 0 0 0 0 0 0 0 0 0 127 0"/>
<feOffset dy="2"/>
<feGaussianBlur stdDeviation="3"/>
<feColorMatrix type="matrix" values="0 0 0 0 0.145098 0 0 0 0 0.164706 0 0 0 0 0.196078 0 0 0 0.12 0"/>
<feBlend mode="normal" in2="BackgroundImageFix" result="effect1_dropShadow"/>
<feBlend mode="normal" in="SourceGraphic" in2="effect1_dropShadow" result="shape"/>
</filter>
</defs>
</svg>

