<svg width="16" height="16" viewBox="0 0 16 16" fill="none" xmlns="http://www.w3.org/2000/svg">
<path fill-rule="evenodd" clip-rule="evenodd" d="M8.03301 0.308838C3.61486 0.308838 0 3.90759 0 8.30607C0 11.8382 2.27602 14.8371 5.48923 15.9034C5.89088 15.9701 6.02476 15.7035 6.02476 15.5036C6.02476 15.3036 6.02476 14.8371 6.02476 14.1707C3.81568 14.6372 3.34709 13.1044 3.34709 13.1044C3.01238 12.1714 2.47685 11.9048 2.47685 11.9048C1.67354 11.4383 2.47685 11.4383 2.47685 11.4383C3.28015 11.505 3.6818 12.238 3.6818 12.238C4.41816 13.4376 5.55617 13.1044 6.02476 12.9045C6.0917 12.3713 6.29253 12.0381 6.56029 11.8382C4.75287 11.6382 2.8785 10.9718 2.8785 7.90621C2.8785 7.03984 3.21321 6.30676 3.6818 5.77361C3.6818 5.50704 3.34709 4.70731 3.81568 3.64102C3.81568 3.64102 4.4851 3.44109 6.02476 4.44074C6.69418 4.24081 7.3636 4.17417 8.03301 4.17417C8.70243 4.17417 9.37185 4.24081 10.0413 4.44074C11.5809 3.37444 12.2503 3.64102 12.2503 3.64102C12.7189 4.77396 12.3842 5.57368 12.3173 5.77361C12.8528 6.30676 13.1206 7.03984 13.1206 7.90621C13.1206 10.9718 11.2462 11.6382 9.43879 11.8382C9.70656 12.1048 9.97432 12.5713 9.97432 13.3043C9.97432 14.3706 9.97432 15.237 9.97432 15.5036C9.97432 15.7035 10.1082 15.9701 10.5099 15.9034C13.7231 14.8371 15.9991 11.8382 15.9991 8.30607C16.066 3.90759 12.4512 0.308838 8.03301 0.308838Z" fill="#fff"/>
</svg>
