<svg version="1.1" xmlns="http://www.w3.org/2000/svg">
    <defs>
        <g id="plug-DEFAULT">
            <path fill-rule="evenodd" clip-rule="evenodd"
                  d="M12 3C7.02944 3 3 7.02944 3 12C3 16.9706 7.02944 21 12 21C16.9706 21 21 16.9706 21 12C21 7.02944 16.9706 3 12 3ZM1 12C1 5.92487 5.92487 1 12 1C18.0751 1 23 5.92487 23 12C23 18.0751 18.0751 23 12 23C5.92487 23 1 18.0751 1 12Z"
                  fill="currentColor"/>
            <path d="M7 8.5C7 7.67157 7.67157 7 8.5 7C9.32843 7 10 7.67157 10 8.5V12.5C10 13.3284 9.32843 14 8.5 14C7.67157 14 7 13.3284 7 12.5V8.5Z"
                  fill="currentColor"/>
            <path d="M14 8.5C14 7.67157 14.6716 7 15.5 7C16.3284 7 17 7.67157 17 8.5V12.5C17 13.3284 16.3284 14 15.5 14C14.6716 14 14 13.3284 14 12.5V8.5Z"
                  fill="currentColor"/>
            <path d="M9 18C9 16.3431 10.3431 15 12 15C13.6569 15 15 16.3431 15 18H9Z" fill="currentColor"/>
        </g>
        <g id="plug-DOMESTIC_A">
            <path d="M5 10H7V14H5V10Z" fill="currentColor"/>
            <path d="M19 10H17V14H19V10Z" fill="currentColor"/>
            <path fill-rule="evenodd" clip-rule="evenodd"
                  d="M0 8C0 6.34315 1.34315 5 3 5H21C22.6569 5 24 6.34315 24 8V16C24 17.6569 22.6569 19 21 19H3C1.34314 19 0 17.6569 0 16V8ZM3 7C2.44772 7 2 7.44772 2 8V16C2 16.5523 2.44772 17 3 17H21C21.5523 17 22 16.5523 22 16V8C22 7.44771 21.5523 7 21 7H3Z"
                  fill="currentColor"/>
        </g>
        <g id="plug-DOMESTIC_C">
            <path d="M5 6H7V10H5V6Z" fill="currentColor"/>
            <path d="M17 6H19V10H17V6Z" fill="currentColor"/>
            <path fill-rule="evenodd" clip-rule="evenodd"
                  d="M0 4C0 2.34315 1.34315 1 3 1H21C22.6569 1 24 2.34315 24 4V12C24 13.6586 22.6523 15 20.9973 15H18V17C18 20.3137 15.3137 23 12 23C8.68629 23 6 20.3137 6 17V15H3.00273C1.34766 15 0 13.6586 0 12V4ZM16 13H20.9973C21.5513 13 22 12.5505 22 12V4C22 3.44771 21.5523 3 21 3H3C2.44772 3 2 3.44772 2 4V12C2 12.5505 2.44867 13 3.00273 13H8V17C8 19.2091 9.79086 21 12 21C14.2091 21 16 19.2091 16 17V13Z"
                  fill="currentColor"/>
            <path d="M13.5 17.5C13.5 18.3284 12.8284 19 12 19C11.1716 19 10.5 18.3284 10.5 17.5C10.5 16.6716 11.1716 16 12 16C12.8284 16 13.5 16.6716 13.5 17.5Z"
                  fill="currentColor"/>

        </g>
        <g id="plug-DOMESTIC_C">
            <path fill-rule="evenodd" clip-rule="evenodd"
                  d="M12 3C7.02944 3 3 7.02944 3 12C3 16.9706 7.02944 21 12 21C16.9706 21 21 16.9706 21 12C21 7.02944 16.9706 3 12 3ZM1 12C1 5.92487 5.92487 1 12 1C18.0751 1 23 5.92487 23 12C23 18.0751 18.0751 23 12 23C5.92487 23 1 18.0751 1 12Z"
                  fill="currentColor"/>
            <path d="M6 12C6 10.8954 6.89543 10 8 10C9.10457 10 10 10.8954 10 12C10 13.1046 9.10457 14 8 14C6.89543 14 6 13.1046 6 12Z"
                  fill="currentColor"/>
            <path d="M14 12C14 10.8954 14.8954 10 16 10C17.1046 10 18 10.8954 18 12C18 13.1046 17.1046 14 16 14C14.8954 14 14 13.1046 14 12Z"
                  fill="currentColor"/>
        </g>
        <g id="plug-DOMESTIC_D">
            <path fill-rule="evenodd" clip-rule="evenodd"
                  d="M12 3C7.02944 3 3 7.02944 3 12C3 16.9706 7.02944 21 12 21C16.9706 21 21 16.9706 21 12C21 7.02944 16.9706 3 12 3ZM1 12C1 5.92487 5.92487 1 12 1C18.0751 1 23 5.92487 23 12C23 18.0751 18.0751 23 12 23C5.92487 23 1 18.0751 1 12Z"
                  fill="currentColor"/>
            <path d="M6 14.5C6 13.6716 6.67157 13 7.5 13C8.32843 13 9 13.6716 9 14.5C9 15.3284 8.32843 16 7.5 16C6.67157 16 6 15.3284 6 14.5Z"
                  fill="currentColor"/>
            <path d="M9.5 8.5C9.5 7.11929 10.6193 6 12 6C13.3807 6 14.5 7.11929 14.5 8.5C14.5 9.88071 13.3807 11 12 11C10.6193 11 9.5 9.88071 9.5 8.5Z"
                  fill="currentColor"/>
            <path d="M15 14.5C15 13.6716 15.6716 13 16.5 13C17.3284 13 18 13.6716 18 14.5C18 15.3284 17.3284 16 16.5 16C15.6716 16 15 15.3284 15 14.5Z"
                  fill="currentColor"/>

        </g>
        <g id="plug-DOMESTIC_E">
            <path fill-rule="evenodd" clip-rule="evenodd"
                  d="M9.5 8.5C9.5 7.11929 10.6193 6 12 6C13.3807 6 14.5 7.11929 14.5 8.5C14.5 9.88071 13.3807 11 12 11C10.6193 11 9.5 9.88071 9.5 8.5ZM12 10C12.8284 10 13.5 9.32843 13.5 8.5C13.5 7.67157 12.8284 7 12 7C11.1716 7 10.5 7.67157 10.5 8.5C10.5 9.32843 11.1716 10 12 10Z"
                  fill="currentColor"/>
            <path d="M7.5 13C6.67157 13 6 13.6716 6 14.5C6 15.3284 6.67157 16 7.5 16C8.32843 16 9 15.3284 9 14.5C9 13.6716 8.32843 13 7.5 13Z"
                  fill="currentColor"/>
            <path d="M16.5 13C15.6716 13 15 13.6716 15 14.5C15 15.3284 15.6716 16 16.5 16C17.3284 16 18 15.3284 18 14.5C18 13.6716 17.3284 13 16.5 13Z"
                  fill="currentColor"/>
            <path fill-rule="evenodd" clip-rule="evenodd"
                  d="M1 12C1 5.92487 5.92487 1 12 1C18.0751 1 23 5.92487 23 12C23 18.0751 18.0751 23 12 23C5.92487 23 1 18.0751 1 12ZM12 3C7.02944 3 3 7.02944 3 12C3 16.9706 7.02944 21 12 21C16.9706 21 21 16.9706 21 12C21 7.02944 16.9706 3 12 3Z"
                  fill="currentColor"/>

        </g>
        <g id="plug-DOMESTIC_F">
            <path fill-rule="evenodd" clip-rule="evenodd"
                  d="M12 3C7.02944 3 3 7.02944 3 12C3 16.9706 7.02944 21 12 21C16.9706 21 21 16.9706 21 12C21 7.02944 16.9706 3 12 3ZM1 12C1 5.92487 5.92487 1 12 1C18.0751 1 23 5.92487 23 12C23 18.0751 18.0751 23 12 23C5.92487 23 1 18.0751 1 12Z"
                  fill="currentColor"/>
            <path fill-rule="evenodd" clip-rule="evenodd" d="M9.5 2.5H14.5V5.5H9.5V2.5ZM10.5 3.5V4.5H13.5V3.5H10.5Z"
                  fill="currentColor"/>
            <path fill-rule="evenodd" clip-rule="evenodd"
                  d="M9.5 18.5H14.5V21.5H9.5V18.5ZM10.5 19.5V20.5H13.5V19.5H10.5Z" fill="currentColor"/>
            <path d="M6 12C6 10.8954 6.89543 10 8 10C9.10457 10 10 10.8954 10 12C10 13.1046 9.10457 14 8 14C6.89543 14 6 13.1046 6 12Z"
                  fill="currentColor"/>
            <path fill-rule="evenodd" clip-rule="evenodd"
                  d="M8 10C6.89543 10 6 10.8954 6 12C6 13.1046 6.89543 14 8 14C9.10457 14 10 13.1046 10 12C10 10.8954 9.10457 10 8 10Z"
                  fill="currentColor"/>
            <path d="M14 12C14 10.8954 14.8954 10 16 10C17.1046 10 18 10.8954 18 12C18 13.1046 17.1046 14 16 14C14.8954 14 14 13.1046 14 12Z"
                  fill="currentColor"/>
            <path fill-rule="evenodd" clip-rule="evenodd"
                  d="M16 10C14.8954 10 14 10.8954 14 12C14 13.1046 14.8954 14 16 14C17.1046 14 18 13.1046 18 12C18 10.8954 17.1046 10 16 10Z"
                  fill="currentColor"/>

        </g>
        <g id="plug-DOMESTIC_G">
            <path d="M11 6H13V11H11V6Z" fill="currentColor"/>
            <path d="M6 14H10V16H6V14Z" fill="currentColor"/>
            <path d="M14 14H18V16H14V14Z" fill="currentColor"/>
            <path fill-rule="evenodd" clip-rule="evenodd"
                  d="M1 4C1 2.34315 2.34315 1 4 1H20C21.6569 1 23 2.34315 23 4V20C23 21.6569 21.6569 23 20 23H4C2.34315 23 1 21.6569 1 20V4ZM4 3C3.44772 3 3 3.44772 3 4V20C3 20.5523 3.44772 21 4 21H20C20.5523 21 21 20.5523 21 20V4C21 3.44772 20.5523 3 20 3H4Z"
                  fill="currentColor"/>

        </g>
        <g id="plug-DOMESTIC_H">
            <path d="M11 13H13V18H11V13Z" fill="currentColor"/>
            <path d="M10.9749 10.0605L7.43935 6.52501L6.02514 7.93923L9.56067 11.4748L10.9749 10.0605Z" fill="currentColor"/>
            <path d="M13.0251 10.0605L16.5607 6.52501L17.9749 7.93923L14.4394 11.4748L13.0251 10.0605Z" fill="currentColor"/>
            <path fill-rule="evenodd" clip-rule="evenodd"
                  d="M1 12C1 5.92487 5.92487 1 12 1C18.0751 1 23 5.92487 23 12C23 18.0751 18.0751 23 12 23C5.92487 23 1 18.0751 1 12ZM12 3C7.02944 3 3 7.02944 3 12C3 16.9706 7.02944 21 12 21C16.9706 21 21 16.9706 21 12C21 7.02944 16.9706 3 12 3Z"
                  fill="currentColor"/>

        </g>
        <g id="plug-DOMESTIC_I">
            <path d="M11 13H13V18H11V13Z" fill="currentColor"/>
            <path d="M5.02516 9.06055L8.56069 5.52501L9.9749 6.93923L6.43937 10.4748L5.02516 9.06055Z" fill="currentColor"/>
            <path d="M18.9749 9.06055L15.4394 5.52501L14.0252 6.93923L17.5607 10.4748L18.9749 9.06055Z" fill="currentColor"/>
            <path fill-rule="evenodd" clip-rule="evenodd"
                  d="M1 4C1 2.34315 2.34315 1 4 1H20C21.6569 1 23 2.34315 23 4V20C23 21.6569 21.6569 23 20 23H4C2.34315 23 1 21.6569 1 20V4ZM4 3C3.44772 3 3 3.44772 3 4V20C3 20.5523 3.44772 21 4 21H20C20.5523 21 21 20.5523 21 20V4C21 3.44772 20.5523 3 20 3H4Z"
                  fill="currentColor"/>

        </g>
        <g id="plug-DOMESTIC_j">
            <path fill-rule="evenodd" clip-rule="evenodd"
                  d="M1.5955 7.05132C2.00384 5.82629 3.15026 5 4.44155 5H19.5585C20.8498 5 21.9962 5.82629 22.4046 7.05132L23.7379 11.0513C23.9432 11.6671 23.9432 12.3329 23.7379 12.9487L22.4046 16.9487C21.9962 18.1737 20.8498 19 19.5585 19H4.44155C3.15026 19 2.00384 18.1737 1.5955 16.9487L0.262165 12.9487C0.0568986 12.3329 0.0568986 11.6671 0.262165 11.0513L1.5955 7.05132ZM4.44155 7C4.01112 7 3.62898 7.27543 3.49287 7.68377L2.15953 11.6838C2.09111 11.889 2.09111 12.111 2.15953 12.3162L3.49287 16.3162C3.62898 16.7246 4.01112 17 4.44155 17H19.5585C19.9889 17 20.3711 16.7246 20.5072 16.3162L21.8405 12.3162C21.909 12.111 21.909 11.889 21.8405 11.6838L20.5072 7.68377C20.3711 7.27543 19.9889 7 19.5585 7H4.44155Z"
                  fill="currentColor"/>
            <path d="M5.00003 10.5C5.00003 9.67157 5.6716 9 6.50003 9C7.32846 9 8.00003 9.67157 8.00003 10.5C8.00003 11.3284 7.32846 12 6.50003 12C5.6716 12 5.00003 11.3284 5.00003 10.5Z"
                  fill="currentColor"/>
            <path d="M16 10.5C16 9.67157 16.6716 9 17.5 9C18.3285 9 19 9.67157 19 10.5C19 11.3284 18.3285 12 17.5 12C16.6716 12 16 11.3284 16 10.5Z"
                  fill="currentColor"/>
            <path d="M10.5 13.5C10.5 12.6716 11.1716 12 12 12C12.8285 12 13.5 12.6716 13.5 13.5C13.5 14.3284 12.8285 15 12 15C11.1716 15 10.5 14.3284 10.5 13.5Z"
                  fill="currentColor"/>

        </g>
        <g id="plug-DOMESTIC_K">
            <path fill-rule="evenodd" clip-rule="evenodd"
                  d="M12 3C7.02944 3 3 7.02944 3 12C3 16.9706 7.02944 21 12 21C16.9706 21 21 16.9706 21 12C21 7.02944 16.9706 3 12 3ZM1 12C1 5.92487 5.92487 1 12 1C18.0751 1 23 5.92487 23 12C23 18.0751 18.0751 23 12 23C5.92487 23 1 18.0751 1 12Z"
                  fill="currentColor"/>
            <path d="M6 11.5C6 10.6716 6.67157 10 7.5 10C8.32843 10 9 10.6716 9 11.5C9 12.3284 8.32843 13 7.5 13C6.67157 13 6 12.3284 6 11.5Z"
                  fill="currentColor"/>
            <path d="M10.5 16.5C10.5 15.6716 11.1716 15 12 15C12.8284 15 13.5 15.6716 13.5 16.5C13.5 17.3284 12.8284 18 12 18C11.1716 18 10.5 17.3284 10.5 16.5Z"
                  fill="currentColor"/>
            <path d="M15 11.5C15 10.6716 15.6716 10 16.5 10C17.3284 10 18 10.6716 18 11.5C18 12.3284 17.3284 13 16.5 13C15.6716 13 15 12.3284 15 11.5Z"
                  fill="currentColor"/>

        </g>
        <g id="plug-DOMESTIC_L">
            <path fill-rule="evenodd" clip-rule="evenodd"
                  d="M0 8C0 6.34315 1.34315 5 3 5H21C22.6569 5 24 6.34315 24 8V16C24 17.6569 22.6569 19 21 19H3C1.34314 19 0 17.6569 0 16V8ZM3 7C2.44772 7 2 7.44772 2 8V16C2 16.5523 2.44772 17 3 17H21C21.5523 17 22 16.5523 22 16V8C22 7.44771 21.5523 7 21 7H3Z"
                  fill="currentColor"/>
            <path d="M10.5 12C10.5 11.1716 11.1716 10.5 12 10.5C12.8284 10.5 13.5 11.1716 13.5 12C13.5 12.8284 12.8284 13.5 12 13.5C11.1716 13.5 10.5 12.8284 10.5 12Z"
                  fill="currentColor"/>
            <path d="M16 12C16 11.1716 16.6716 10.5 17.5 10.5C18.3284 10.5 19 11.1716 19 12C19 12.8284 18.3284 13.5 17.5 13.5C16.6716 13.5 16 12.8284 16 12Z"
                  fill="currentColor"/>
            <path d="M5 12C5 11.1716 5.67157 10.5 6.5 10.5C7.32843 10.5 8 11.1716 8 12C8 12.8284 7.32843 13.5 6.5 13.5C5.67157 13.5 5 12.8284 5 12Z"
                  fill="currentColor"/>

        </g>

        <g id="plug-IEC_62196_T1">
            <path fill-rule="evenodd" clip-rule="evenodd"
                  d="M12 3C7.02944 3 3 7.02944 3 12C3 16.9706 7.02944 21 12 21C16.9706 21 21 16.9706 21 12C21 7.02944 16.9706 3 12 3ZM1 12C1 5.92487 5.92487 1 12 1C18.0751 1 23 5.92487 23 12C23 18.0751 18.0751 23 12 23C5.92487 23 1 18.0751 1 12Z"
                  fill="currentColor"/>
            <path fill-rule="evenodd" clip-rule="evenodd"
                  d="M6 8.5C6 7.11929 7.11929 6 8.5 6C9.88071 6 11 7.11929 11 8.5C11 9.88071 9.88071 11 8.5 11C7.11929 11 6 9.88071 6 8.5ZM13 8.5C13 7.11929 14.1193 6 15.5 6C16.8807 6 18 7.11929 18 8.5C18 9.88071 16.8807 11 15.5 11C14.1193 11 13 9.88071 13 8.5ZM4 14C4 12.8954 4.89543 12 6 12C7.10457 12 8 12.8954 8 14C8 15.1046 7.10457 16 6 16C4.89543 16 4 15.1046 4 14ZM16 14C16 12.8954 16.8954 12 18 12C19.1046 12 20 12.8954 20 14C20 15.1046 19.1046 16 18 16C16.8954 16 16 15.1046 16 14ZM9.5 17.5C9.5 16.1193 10.6193 15 12 15C13.3807 15 14.5 16.1193 14.5 17.5C14.5 18.8807 13.3807 20 12 20C10.6193 20 9.5 18.8807 9.5 17.5Z"
                  fill="currentColor"/>

        </g>
        <g id="plug-IEC_62196_T2">
            <path fill-rule="evenodd" clip-rule="evenodd"
                  d="M3 10.8723C3 8.56414 3.8328 5.66045 5.11978 4H18.8802C20.1672 5.66045 21 8.56414 21 10.8723C21 15.9254 16.9586 20 12 20C7.04136 20 3 15.9254 3 10.8723ZM5.09581 2C4.54757 2 3.97156 2.22695 3.58486 2.71621C1.93529 4.80324 1 8.20927 1 10.8723C1 17.006 5.91295 22 12 22C18.0871 22 23 17.006 23 10.8723C23 8.20927 22.0647 4.80324 20.4151 2.7162C20.0284 2.22695 19.4524 2 18.9042 2H5.09581ZM8 5C6.89543 5 6 5.89543 6 7C6 8.10457 6.89543 9 8 9C9.10457 9 10 8.10457 10 7C10 5.89543 9.10457 5 8 5ZM14 7C14 5.89543 14.8954 5 16 5C17.1046 5 18 5.89543 18 7C18 8.10457 17.1046 9 16 9C14.8954 9 14 8.10457 14 7ZM12 9C10.8954 9 10 9.89543 10 11C10 12.1046 10.8954 13 12 13C13.1046 13 14 12.1046 14 11C14 9.89543 13.1046 9 12 9ZM7 16C7 14.8954 7.89543 14 9 14C10.1046 14 11 14.8954 11 16C11 17.1046 10.1046 18 9 18C7.89543 18 7 17.1046 7 16ZM15 14C13.8954 14 13 14.8954 13 16C13 17.1046 13.8954 18 15 18C16.1046 18 17 17.1046 17 16C17 14.8954 16.1046 14 15 14ZM16 12C16 10.8954 16.8954 10 18 10C19.1046 10 20 10.8954 20 12C20 13.1046 19.1046 14 18 14C16.8954 14 16 13.1046 16 12ZM6 10C4.89543 10 4 10.8954 4 12C4 13.1046 4.89543 14 6 14C7.10457 14 8 13.1046 8 12C8 10.8954 7.10457 10 6 10Z"
                  fill="currentColor"/>
        </g>
        <g id="plug-IEC_62196_T3A">
            <path fill-rule="evenodd" clip-rule="evenodd"
                  d="M10.5 19.8462C10.5 19.0815 11.1716 18.4615 12 18.4615C12.8284 18.4615 13.5 19.0815 13.5 19.8462C13.5 20.6109 12.8284 21.2308 12 21.2308C11.1716 21.2308 10.5 20.6109 10.5 19.8462ZM12 20.3077C12.2761 20.3077 12.5 20.1011 12.5 19.8462C12.5 19.5913 12.2761 19.3846 12 19.3846C11.7239 19.3846 11.5 19.5913 11.5 19.8462C11.5 20.1011 11.7239 20.3077 12 20.3077Z"
                  fill="currentColor"/>
            <path d="M9 4.61538C8.17157 4.61538 7.5 5.2353 7.5 6C7.5 6.7647 8.17157 7.38462 9 7.38462C9.82843 7.38462 10.5 6.7647 10.5 6C10.5 5.2353 9.82843 4.61538 9 4.61538Z"
                  fill="currentColor"/>
            <path d="M13.5 6C13.5 5.2353 14.1716 4.61538 15 4.61538C15.8284 4.61538 16.5 5.2353 16.5 6C16.5 6.7647 15.8284 7.38462 15 7.38462C14.1716 7.38462 13.5 6.7647 13.5 6Z"
                  fill="currentColor"/>
            <path fill-rule="evenodd" clip-rule="evenodd"
                  d="M9 14.7692C7.89543 14.7692 7 15.5958 7 16.6154C7 17.635 7.89543 18.4615 9 18.4615C10.1046 18.4615 11 17.635 11 16.6154C11 15.5958 10.1046 14.7692 9 14.7692ZM10 16.6154C10 17.1252 9.55228 17.5385 9 17.5385C8.44772 17.5385 8 17.1252 8 16.6154C8 16.1056 8.44772 15.6923 9 15.6923C9.55228 15.6923 10 16.1056 10 16.6154Z"
                  fill="currentColor"/>
            <path fill-rule="evenodd" clip-rule="evenodd"
                  d="M13 16.6154C13 15.5958 13.8954 14.7692 15 14.7692C16.1046 14.7692 17 15.5958 17 16.6154C17 17.635 16.1046 18.4615 15 18.4615C13.8954 18.4615 13 17.635 13 16.6154ZM15 17.5385C15.5523 17.5385 16 17.1252 16 16.6154C16 16.1056 15.5523 15.6923 15 15.6923C14.4477 15.6923 14 16.1056 14 16.6154C14 17.1252 14.4477 17.5385 15 17.5385Z"
                  fill="currentColor"/>
            <path fill-rule="evenodd" clip-rule="evenodd"
                  d="M9 9.23077C7.89543 9.23077 7 10.0573 7 11.0769C7 12.0965 7.89543 12.9231 9 12.9231C10.1046 12.9231 11 12.0965 11 11.0769C11 10.0573 10.1046 9.23077 9 9.23077ZM9 12C9.55228 12 10 11.5867 10 11.0769C10 10.5671 9.55228 10.1538 9 10.1538C8.44772 10.1538 8 10.5671 8 11.0769C8 11.5867 8.44772 12 9 12Z"
                  fill="currentColor"/>
            <path fill-rule="evenodd" clip-rule="evenodd"
                  d="M13 11.0769C13 10.0573 13.8954 9.23077 15 9.23077C16.1046 9.23077 17 10.0573 17 11.0769C17 12.0965 16.1046 12.9231 15 12.9231C13.8954 12.9231 13 12.0965 13 11.0769ZM16 11.0769C16 11.5867 15.5523 12 15 12C14.4477 12 14 11.5867 14 11.0769C14 10.5671 14.4477 10.1538 15 10.1538C15.5523 10.1538 16 10.5671 16 11.0769Z"
                  fill="currentColor"/>
            <path fill-rule="evenodd" clip-rule="evenodd"
                  d="M3 9.23077C3 4.13276 6 0 12 0C18 0 21 4.13276 21 9.23077V14.7692C21 19.8672 18 24 12 24C6 24 3 19.8672 3 14.7692V9.23077ZM11 1.90329C7.05369 2.35753 5 5.46497 5 9.23077V14.7692C5 18.8476 7.58172 22.1538 12 22.1538C16.4183 22.1538 19 18.8476 19 14.7692V9.23077C19 5.46497 16.9463 2.35753 13 1.90329V3.69231H11V1.90329Z"
                  fill="currentColor"/>

        </g>
        <g id="plug-IEC_62196_T3C">
            <path fill-rule="evenodd" clip-rule="evenodd"
                  d="M10.5 19.8462C10.5 19.0815 11.1716 18.4615 12 18.4615C12.8284 18.4615 13.5 19.0815 13.5 19.8462C13.5 20.6109 12.8284 21.2308 12 21.2308C11.1716 21.2308 10.5 20.6109 10.5 19.8462ZM12 20.3077C12.2761 20.3077 12.5 20.1011 12.5 19.8462C12.5 19.5913 12.2761 19.3846 12 19.3846C11.7239 19.3846 11.5 19.5913 11.5 19.8462C11.5 20.1011 11.7239 20.3077 12 20.3077Z"
                  fill="currentColor"/>
            <path d="M9 4.61538C8.17157 4.61538 7.5 5.2353 7.5 6C7.5 6.7647 8.17157 7.38462 9 7.38462C9.82843 7.38462 10.5 6.7647 10.5 6C10.5 5.2353 9.82843 4.61538 9 4.61538Z"
                  fill="currentColor"/>
            <path d="M13.5 6C13.5 5.2353 14.1716 4.61538 15 4.61538C15.8284 4.61538 16.5 5.2353 16.5 6C16.5 6.7647 15.8284 7.38462 15 7.38462C14.1716 7.38462 13.5 6.7647 13.5 6Z"
                  fill="currentColor"/>
            <path fill-rule="evenodd" clip-rule="evenodd"
                  d="M9 14.7692C7.89543 14.7692 7 15.5958 7 16.6154C7 17.635 7.89543 18.4615 9 18.4615C10.1046 18.4615 11 17.635 11 16.6154C11 15.5958 10.1046 14.7692 9 14.7692ZM10 16.6154C10 17.1252 9.55228 17.5385 9 17.5385C8.44772 17.5385 8 17.1252 8 16.6154C8 16.1056 8.44772 15.6923 9 15.6923C9.55228 15.6923 10 16.1056 10 16.6154Z"
                  fill="currentColor"/>
            <path fill-rule="evenodd" clip-rule="evenodd"
                  d="M13 16.6154C13 15.5958 13.8954 14.7692 15 14.7692C16.1046 14.7692 17 15.5958 17 16.6154C17 17.635 16.1046 18.4615 15 18.4615C13.8954 18.4615 13 17.635 13 16.6154ZM15 17.5385C15.5523 17.5385 16 17.1252 16 16.6154C16 16.1056 15.5523 15.6923 15 15.6923C14.4477 15.6923 14 16.1056 14 16.6154C14 17.1252 14.4477 17.5385 15 17.5385Z"
                  fill="currentColor"/>
            <path fill-rule="evenodd" clip-rule="evenodd"
                  d="M9 9.23077C7.89543 9.23077 7 10.0573 7 11.0769C7 12.0965 7.89543 12.9231 9 12.9231C10.1046 12.9231 11 12.0965 11 11.0769C11 10.0573 10.1046 9.23077 9 9.23077ZM9 12C9.55228 12 10 11.5867 10 11.0769C10 10.5671 9.55228 10.1538 9 10.1538C8.44772 10.1538 8 10.5671 8 11.0769C8 11.5867 8.44772 12 9 12Z"
                  fill="currentColor"/>
            <path fill-rule="evenodd" clip-rule="evenodd"
                  d="M13 11.0769C13 10.0573 13.8954 9.23077 15 9.23077C16.1046 9.23077 17 10.0573 17 11.0769C17 12.0965 16.1046 12.9231 15 12.9231C13.8954 12.9231 13 12.0965 13 11.0769ZM16 11.0769C16 11.5867 15.5523 12 15 12C14.4477 12 14 11.5867 14 11.0769C14 10.5671 14.4477 10.1538 15 10.1538C15.5523 10.1538 16 10.5671 16 11.0769Z"
                  fill="currentColor"/>
            <path fill-rule="evenodd" clip-rule="evenodd"
                  d="M3 9.23077C3 4.13276 6 0 12 0C18 0 21 4.13276 21 9.23077V14.7692C21 19.8672 18 24 12 24C6 24 3 19.8672 3 14.7692V9.23077ZM11 1.90329C7.05369 2.35753 5 5.46497 5 9.23077V14.7692C5 18.8476 7.58172 22.1538 12 22.1538C16.4183 22.1538 19 18.8476 19 14.7692V9.23077C19 5.46497 16.9463 2.35753 13 1.90329V3.69231H11V1.90329Z"
                  fill="currentColor"/>

        </g>

        <g id="plug-IEC_62196_T1_COMBO">
            <path d="M10 19.5C10 20.6046 9.10457 21.5 8 21.5C6.89543 21.5 6 20.6046 6 19.5C6 18.3954 6.89543 17.5 8 17.5C9.10457 17.5 10 18.3954 10 19.5Z"
                  fill="currentColor"/>
            <path d="M16 21.5C17.1046 21.5 18 20.6046 18 19.5C18 18.3954 17.1046 17.5 16 17.5C14.8954 17.5 14 18.3954 14 19.5C14 20.6046 14.8954 21.5 16 21.5Z"
                  fill="currentColor"/>
            <path fill-rule="evenodd" clip-rule="evenodd"
                  d="M16.8333 15C19.1345 15 21 16.8655 21 19.1667V19.8333C21 22.1345 19.1345 24 16.8333 24H7.16667C4.86548 24 3 22.1345 3 19.8333V19.1667C3 16.8655 4.86548 15 7.16667 15H16.8333ZM19 19.1667C19 17.97 18.0299 17 16.8333 17H7.16667C5.97005 17 5 17.97 5 19.1667V19.8333C5 21.03 5.97005 22 7.16667 22H16.8333C18.0299 22 19 21.0299 19 19.8333V19.1667Z"
                  fill="currentColor"/>
            <path fill-rule="evenodd" clip-rule="evenodd"
                  d="M8.12399 15H15.876C18.3354 13.6353 20 11.012 20 8C20 3.58172 16.4183 0 12 0C7.58172 0 4 3.58172 4 8C4 11.012 5.66458 13.6353 8.12399 15ZM18 8C18 11.3137 15.3137 14 12 14C8.68629 14 6 11.3137 6 8C6 4.68629 8.68629 2 12 2C15.3137 2 18 4.68629 18 8Z"
                  fill="currentColor"/>
            <path d="M9.31818 4C8.46465 4 7.77273 4.69192 7.77273 5.54545C7.77273 6.39899 8.46465 7.09091 9.31818 7.09091C10.1717 7.09091 10.8636 6.39899 10.8636 5.54545C10.8636 4.69192 10.1717 4 9.31818 4Z"
                  fill="currentColor"/>
            <path d="M13.1818 5.54545C13.1818 4.69192 13.8737 4 14.7273 4C15.5808 4 16.2727 4.69192 16.2727 5.54545C16.2727 6.39899 15.5808 7.09091 14.7273 7.09091C13.8737 7.09091 13.1818 6.39899 13.1818 5.54545Z"
                  fill="currentColor"/>
            <path d="M12.0227 9.40909C11.1692 9.40909 10.4773 10.101 10.4773 10.9545C10.4773 11.8081 11.1692 12.5 12.0227 12.5C12.8763 12.5 13.5682 11.8081 13.5682 10.9545C13.5682 10.101 12.8763 9.40909 12.0227 9.40909Z"
                  fill="currentColor"/>
            <path d="M14.7273 9.02273C14.7273 8.38258 15.2462 7.86364 15.8864 7.86364C16.5265 7.86364 17.0455 8.38258 17.0455 9.02273C17.0455 9.66288 16.5265 10.1818 15.8864 10.1818C15.2462 10.1818 14.7273 9.66288 14.7273 9.02273Z"
                  fill="currentColor"/>
            <path d="M8.15909 7.86364C7.51894 7.86364 7 8.38258 7 9.02273C7 9.66288 7.51894 10.1818 8.15909 10.1818C8.79924 10.1818 9.31818 9.66288 9.31818 9.02273C9.31818 8.38258 8.79924 7.86364 8.15909 7.86364Z"
                  fill="currentColor"/>

        </g>
        <g id="plug-IEC_62196_T2_COMBO">
            <path d="M8.5 2.5C7.39543 2.5 6.5 3.39543 6.5 4.5C6.5 5.60457 7.39543 6.5 8.5 6.5C9.60457 6.5 10.5 5.60457 10.5 4.5C10.5 3.39543 9.60457 2.5 8.5 2.5Z"
                  fill="currentColor"/>
            <path d="M13.5 4.5C13.5 3.39543 14.3954 2.5 15.5 2.5C16.6046 2.5 17.5 3.39543 17.5 4.5C17.5 5.60457 16.6046 6.5 15.5 6.5C14.3954 6.5 13.5 5.60457 13.5 4.5Z"
                  fill="currentColor"/>
            <path d="M12 9.5C10.8954 9.5 10 10.3954 10 11.5C10 12.6046 10.8954 13.5 12 13.5C13.1046 13.5 14 12.6046 14 11.5C14 10.3954 13.1046 9.5 12 9.5Z"
                  fill="currentColor"/>
            <path d="M15.5 9C15.5 8.17157 16.1716 7.5 17 7.5C17.8284 7.5 18.5 8.17157 18.5 9C18.5 9.82843 17.8284 10.5 17 10.5C16.1716 10.5 15.5 9.82843 15.5 9Z"
                  fill="currentColor"/>
            <path d="M7 7.5C6.17157 7.5 5.5 8.17157 5.5 9C5.5 9.82843 6.17157 10.5 7 10.5C7.82843 10.5 8.5 9.82843 8.5 9C8.5 8.17157 7.82843 7.5 7 7.5Z"
                  fill="currentColor"/>
            <path d="M10 19.5C10 20.6046 9.10457 21.5 8 21.5C6.89543 21.5 6 20.6046 6 19.5C6 18.3954 6.89543 17.5 8 17.5C9.10457 17.5 10 18.3954 10 19.5Z"
                  fill="currentColor"/>
            <path d="M16 21.5C17.1046 21.5 18 20.6046 18 19.5C18 18.3954 17.1046 17.5 16 17.5C14.8954 17.5 14 18.3954 14 19.5C14 20.6046 14.8954 21.5 16 21.5Z"
                  fill="currentColor"/>
            <path fill-rule="evenodd" clip-rule="evenodd"
                  d="M22 6.99764C22 10.4817 19.8015 13.5035 16.5852 15H16.8333C19.1345 15 21 16.8655 21 19.1667V19.8333C21 22.1345 19.1345 24 16.8333 24H7.16667C4.86548 24 3 22.1345 3 19.8333V19.1667C3 16.8655 4.86548 15 7.16667 15H7.41478C4.19852 13.5035 2 10.4817 2 6.99764C2 4.77685 2.89326 1.95527 4.37397 0.293784C4.54739 0.0991895 4.80045 0 5.06111 0H18.9389C19.1995 0 19.4526 0.0991897 19.626 0.293784C21.1067 1.95527 22 4.77685 22 6.99764ZM12 14C16.6212 14 20 10.6724 20 6.99764C20 5.34055 19.3656 3.28462 18.4339 2H5.56613C4.63442 3.28462 4 5.34055 4 6.99764C4 10.6724 7.37882 14 12 14ZM19 19.1667C19 17.97 18.0299 17 16.8333 17H7.16667C5.97005 17 5 17.97 5 19.1667V19.8333C5 21.03 5.97005 22 7.16667 22H16.8333C18.0299 22 19 21.0299 19 19.8333V19.1667Z"
                  fill="currentColor"/>
            <path d="M10.5 7.5C10.5 6.67157 11.1716 6 12 6C12.8284 6 13.5 6.67157 13.5 7.5C13.5 8.32843 12.8284 9 12 9C11.1716 9 10.5 8.32843 10.5 7.5Z"
                  fill="currentColor"/>

        </g>


        <g id="plug-TESLA_S">
            <path fill-rule="evenodd" clip-rule="evenodd"
                  d="M24 15C24 18.866 20.866 22 17 22C13.134 22 10 18.866 10 15C10 11.134 13.134 8 17 8C20.866 8 24 11.134 24 15ZM17.0008 20L18.1052 13.6977C19.1577 13.6977 19.4898 13.8149 19.5377 14.2929C19.5377 14.2929 20.2439 14.0258 20.6 13.4832C19.2102 12.8297 17.8138 12.8002 17.8138 12.8002L17 13.8061L16.186 12.8C16.186 12.8 14.7896 12.8296 13.4 13.483C13.7558 14.0256 14.4622 14.2928 14.4622 14.2928C14.5104 13.8147 14.8421 13.6976 15.8876 13.6968L17.0008 20ZM20.7759 13.2C19.4417 12.6383 18.1386 12.4597 17 12.4681C15.8614 12.4597 14.5578 12.6383 13.224 13.2C13.0651 12.9217 13 12.7529 13 12.7529C14.4582 12.1956 15.8238 12.0048 16.9998 12C18.1759 12.0048 19.5416 12.1955 21 12.7529C21 12.7529 20.9542 12.89 20.7759 13.2Z"
                  fill="currentColor"/>
            <path d="M4.11978 4C2.8328 5.66045 2 8.56414 2 10.8723C2 15.3873 5.2264 19.121 9.45073 19.8651C9.97885 20.672 10.6345 21.3906 11.3897 21.9932C11.2604 21.9977 11.1305 22 11 22C4.91295 22 0 17.006 0 10.8723C0 8.20927 0.935287 4.80324 2.58486 2.71621C2.97156 2.22695 3.54757 2 4.09581 2H17.9042C18.4524 2 19.0284 2.22695 19.4151 2.7162C20.315 3.85472 21.0023 5.38575 21.4412 6.97457C20.7328 6.60955 19.9419 6.33491 19.0684 6.17172C18.7418 5.34503 18.34 4.59318 17.8802 4H4.11978Z"
                  fill="currentColor"/>
            <path d="M16.7376 6.00897C16.3931 5.40622 15.744 5 15 5C13.9032 5 13.0127 5.88284 13.0001 6.97664C14.1305 6.40988 15.3965 6.06745 16.7376 6.00897Z"
                  fill="currentColor"/>
            <path d="M8.05576 14.0008C8.03723 14.0003 8.01865 14 8 14C6.89543 14 6 14.8954 6 16C6 17.1046 6.89543 18 8 18C8.17208 18 8.33908 17.9783 8.49841 17.9374C8.17541 17.0168 8 16.0286 8 15C8 14.6623 8.01891 14.3288 8.05576 14.0008Z"
                  fill="currentColor"/>
            <path d="M5 7C5 5.89543 5.89543 5 7 5C8.10457 5 9 5.89543 9 7C9 8.10457 8.10457 9 7 9C5.89543 9 5 8.10457 5 7Z"
                  fill="currentColor"/>
            <path d="M3 12C3 10.8954 3.89543 10 5 10C6.10457 10 7 10.8954 7 12C7 13.1046 6.10457 14 5 14C3.89543 14 3 13.1046 3 12Z"
                  fill="currentColor"/>

        </g>
        <g id="plug-TESLA_R">
            <path fill-rule="evenodd" clip-rule="evenodd"
                  d="M21 12C21 23.6072 3 23.6072 3 12C3 0.392762 21 0.392762 21 12ZM1 12C1 5.92487 5.92487 1 12 1C18.0751 1 23 5.92487 23 12C23 18.0751 18.0751 23 12 23C5.92487 23 1 18.0751 1 12Z"
                  fill="currentColor"/>
            <path fill-rule="evenodd" clip-rule="evenodd"
                  d="M9 2H15V5C15 6.65685 13.6569 8 12 8C10.3431 8 9 6.65685 9 5V2Z" fill="currentColor"/>
            <path fill-rule="evenodd" clip-rule="evenodd"
                  d="M9 22H15V19C15 17.3431 13.6569 16 12 16C10.3431 16 9 17.3431 9 19V22Z" fill="currentColor"/>
            <path fill-rule="evenodd" clip-rule="evenodd"
                  d="M4 12C4 10.3431 5.34315 9 7 9C8.65685 9 10 10.3431 10 12C10 13.6569 8.65685 15 7 15C5.34315 15 4 13.6569 4 12Z"
                  fill="currentColor"/>
            <circle cx="17" cy="12" r="2" fill="currentColor" stroke="#252A32" stroke-width="2"/>
            <path fill-rule="evenodd" clip-rule="evenodd"
                  d="M24 16C24 19.866 20.866 23 17 23C13.134 23 10 19.866 10 16C10 12.134 13.134 9 17 9C20.866 9 24 12.134 24 16ZM17.0008 21L18.1052 14.6977C19.1577 14.6977 19.4898 14.8149 19.5377 15.2929C19.5377 15.2929 20.2439 15.0258 20.6 14.4832C19.2102 13.8297 17.8138 13.8002 17.8138 13.8002L17 14.8061L16.186 13.8C16.186 13.8 14.7896 13.8296 13.4 14.483C13.7558 15.0256 14.4622 15.2928 14.4622 15.2928C14.5104 14.8147 14.8421 14.6976 15.8876 14.6968L17.0008 21ZM20.7759 14.2C19.4417 13.6383 18.1386 13.4597 17 13.4681C15.8614 13.4597 14.5578 13.6383 13.224 14.2C13.0651 13.9217 13 13.7529 13 13.7529C14.4582 13.1956 15.8238 13.0048 16.9998 13C18.1759 13.0048 19.5416 13.1955 21 13.7529C21 13.7529 20.9542 13.89 20.7759 14.2Z"
                  fill="currentColor"/>
            <path fill-rule="evenodd" clip-rule="evenodd"
                  d="M20.969 13.7412C20.9633 13.739 20.9576 13.7368 20.9519 13.7347C20.6522 13.6216 20.3565 13.524 20.0656 13.4403C19.7182 13.3403 19.3777 13.2601 19.0455 13.197C18.7446 13.1398 18.4505 13.0966 18.1643 13.0655C18.1446 13.0633 18.1248 13.0613 18.1052 13.0592C18.0126 13.0497 17.9209 13.0413 17.83 13.0342C17.83 13.0342 17.83 13.0342 17.83 13.0342C17.7603 13.0287 17.6911 13.024 17.6224 13.0199C17.4697 13.0107 17.3196 13.0049 17.1723 13.002C17.1156 13.0009 17.0592 13.0003 17.0033 13C17.0022 13 17.0011 13 17 13C16.9989 13 16.9976 13 16.9965 13C16.9406 13.0003 16.8842 13.0009 16.8273 13.002C16.6773 13.005 16.5243 13.011 16.3686 13.0204C16.3028 13.0244 16.2366 13.029 16.1698 13.0342C16.1698 13.0342 16.1698 13.0342 16.1698 13.0342C16.0763 13.0415 15.9818 13.0501 15.8864 13.0601C15.8695 13.0618 15.8526 13.0636 15.8356 13.0655C15.5494 13.0966 15.2553 13.1398 14.9543 13.1969C14.344 13.3129 13.7055 13.4866 13.0481 13.7347C13.0423 13.7369 13.0365 13.739 13.0308 13.7412C13.0205 13.7451 13.0103 13.749 13 13.7529C13 13.7529 13.0651 13.9217 13.224 14.2C13.2359 14.195 13.2479 14.19 13.2598 14.185C13.6709 14.0139 14.0789 13.8791 14.48 13.7748C14.6848 13.7216 14.8877 13.6763 15.0884 13.6381C15.2185 13.6134 15.3477 13.5917 15.4757 13.5728C15.6141 13.5524 15.7512 13.5353 15.8867 13.5212C15.9852 13.5109 16.0828 13.5023 16.1796 13.4951C16.1796 13.4951 16.1796 13.4951 16.1796 13.4951C16.2154 13.4925 16.2511 13.49 16.2867 13.4878C16.3888 13.4814 16.4899 13.4766 16.5899 13.4733C16.728 13.4688 16.8641 13.4671 16.9979 13.4681C16.9986 13.4681 16.9992 13.4681 16.9999 13.4681C17.0005 13.4681 17.0012 13.4681 17.0017 13.4681C17.1356 13.4671 17.2716 13.4688 17.4098 13.4733C17.5072 13.4765 17.6056 13.4811 17.7049 13.4873C17.7432 13.4897 17.7817 13.4923 17.8203 13.4951C17.8203 13.4951 17.8203 13.4951 17.8203 13.4951C17.9144 13.5021 18.0094 13.5105 18.1052 13.5203C18.2433 13.5346 18.3831 13.552 18.5242 13.5728C18.6522 13.5917 18.7812 13.6134 18.9113 13.6381C19.1125 13.6763 19.316 13.7218 19.5213 13.7752C19.9219 13.8795 20.3295 14.0142 20.7402 14.1851C20.7521 14.19 20.764 14.195 20.7759 14.2C20.9062 13.9733 20.9658 13.8391 20.9884 13.7834C20.9967 13.7628 21 13.7529 21 13.7529C20.9897 13.749 20.9794 13.7451 20.969 13.7412ZM20.6 14.4832C20.0503 14.2247 19.4997 14.0639 19.0347 13.9638C18.7054 13.893 18.419 13.8527 18.2066 13.8298C18.1706 13.8259 18.1368 13.8225 18.1052 13.8196C17.9209 13.8025 17.8138 13.8002 17.8138 13.8002L17 14.8061L16.186 13.8C16.186 13.8 16.076 13.8024 15.887 13.8202C15.8576 13.8229 15.8263 13.8261 15.7932 13.8296C15.5807 13.8525 15.2944 13.8929 14.9651 13.9637C14.5002 14.0638 13.9495 14.2246 13.4 14.483C13.5544 14.7186 13.7749 14.9022 13.9751 15.0346C14.236 15.2072 14.4622 15.2928 14.4622 15.2928C14.4763 15.1528 14.5148 15.0438 14.5883 14.9595C14.6006 14.9454 14.6139 14.932 14.6283 14.9192C14.7133 14.8436 14.8349 14.7915 15.0035 14.7568C15.2162 14.7131 15.5038 14.6971 15.8876 14.6968L17.0008 21L18.1052 14.6977C18.4931 14.6977 18.7832 14.7136 18.9972 14.7577C19.1656 14.7923 19.2869 14.8443 19.3718 14.9197C19.3861 14.9324 19.3994 14.9458 19.4117 14.9598C19.4853 15.044 19.5237 15.153 19.5377 15.2929C19.5377 15.2929 19.7643 15.2072 20.0255 15.0342C20.2254 14.9019 20.4456 14.7184 20.6 14.4832ZM23.3465 13.0428C23.7658 13.9411 24 14.9432 24 16C24 19.866 20.866 23 17 23C13.134 23 10 19.866 10 16C10 14.9759 10.2199 14.0031 10.6151 13.1264C10.7326 12.8659 10.8655 12.6138 11.0127 12.3714C12.2403 10.3502 14.4624 9 17 9C19.5375 9 21.7597 10.3502 22.9873 12.3714C23.1187 12.5878 23.2387 12.8118 23.3465 13.0428ZM26 16C26 20.9706 21.9706 25 17 25C12.0294 25 8 20.9706 8 16C8 11.0294 12.0294 7 17 7C21.9706 7 26 11.0294 26 16Z"
                  fill="white"/>

        </g>

        <g id="plug-CHADEMO">
            <path fill-rule="evenodd" clip-rule="evenodd"
                  d="M16.3088 4.08872C15.8655 4.344 15.4145 4.25164 15.15 4.15577C14.1709 3.80101 13.11 3.6066 12 3.6066C10.89 3.6066 9.82911 3.80101 8.85004 4.15577C8.52457 4.2737 8.14434 4.30272 7.77011 4.14723C7.43523 4.00808 7.23079 3.77051 7.12076 3.62383C7.03184 3.5053 6.94683 3.36316 6.89522 3.27686L6.86982 3.23459C6.84743 3.1978 6.82906 3.16875 6.81382 3.14563C6.63562 3.20121 6.26638 3.37708 5.6278 3.8765C5.42477 4.03529 5.26258 4.17097 5.13403 4.28616C5.2583 4.37134 5.39783 4.48995 5.51274 4.65149C5.75879 4.9974 5.80366 5.40534 5.68921 5.78839C5.59122 6.11636 5.38441 6.40728 5.16006 6.6614C3.81279 8.18736 3 10.1672 3 12.3336C3 17.1534 7.02944 21.0607 12 21.0607C16.9706 21.0607 21 17.1534 21 12.3336C21 10.1672 20.1872 8.18736 18.8399 6.6614C18.5927 6.38139 18.394 6.07206 18.2995 5.72583C18.1987 5.35639 18.2341 5.00765 18.3585 4.70205C18.4724 4.42219 18.6475 4.21282 18.7678 4.08093C18.7915 4.05498 18.8154 4.02955 18.8384 4.0055C18.6643 3.87105 18.3988 3.69755 18.0039 3.47879C17.5073 3.20365 17.1764 3.06642 16.9696 2.99955C16.9526 3.09263 16.9277 3.21547 16.8939 3.32459C16.8466 3.47747 16.7122 3.85635 16.3088 4.08872ZM19.0711 3.75865C19.0711 3.75865 19.0706 3.75952 19.0693 3.76132L19.0711 3.75865ZM4.52476 3.96987C4.52476 3.96987 4.52856 3.97182 4.53465 3.97593C4.52755 3.97196 4.52476 3.96987 4.52476 3.96987ZM16.7159 1.00006C17.352 1.00504 18.1022 1.29966 18.9961 1.79492C19.4595 2.05167 19.8323 2.2895 20.1215 2.51744C20.403 2.73928 20.6586 2.99284 20.8228 3.29506C21.0056 3.63177 21.0597 4.00408 20.956 4.37168C20.8653 4.69322 20.6756 4.92647 20.5592 5.05765C20.4969 5.12796 20.4327 5.19336 20.3858 5.24123L20.3812 5.24582C20.3486 5.27905 20.3228 5.30536 20.3001 5.32914C20.3161 5.34974 20.3356 5.37339 20.3592 5.40016C22.005 7.26421 23 9.68748 23 12.3336C23 18.2245 18.0751 23 12 23C5.92487 23 1 18.2245 1 12.3336C1 9.78631 1.92208 7.44553 3.45912 5.61134C3.3246 5.52813 3.15968 5.40278 3.02713 5.2216C2.76865 4.86827 2.72906 4.44823 2.85754 4.06256C2.96499 3.73999 3.18141 3.45937 3.40698 3.21964C3.64495 2.96675 3.96448 2.68585 4.3722 2.36697C5.17828 1.73654 5.8761 1.33833 6.516 1.22131C6.86067 1.15829 7.20602 1.17351 7.53286 1.29214C7.8553 1.40916 8.08769 1.60069 8.25166 1.77977C8.38724 1.92786 8.4902 2.08383 8.5616 2.19898C9.64448 1.85373 10.8007 1.66726 12 1.66726C13.0859 1.66726 14.1365 1.82014 15.1293 2.10535C15.1396 2.07537 15.1507 2.0451 15.1627 2.01478C15.2479 1.80003 15.4027 1.52366 15.6977 1.30789C16.0032 1.08436 16.3609 0.997289 16.7159 1.00006ZM10.7437 8.02463C11.0871 8.29372 11.5241 8.45487 12 8.45487C12.4759 8.45487 12.9129 8.29372 13.2563 8.02463L12 6.80648L10.7437 8.02463ZM11.6464 6.46365L10.3969 7.6753C10.1476 7.35184 10 6.9504 10 6.51553C10 6.0541 10.1662 5.63032 10.4437 5.29738L11.6464 6.46365ZM12.3536 6.46365L13.6031 7.6753C13.8524 7.35184 14 6.9504 14 6.51553C14 6.0541 13.8338 5.63032 13.5563 5.29738L12.3536 6.46365ZM13.196 4.96105L12 6.12082L10.804 4.96105C11.1375 4.71932 11.5515 4.57619 12 4.57619C12.4485 4.57619 12.8625 4.71932 13.196 4.96105ZM12 19.0909C11.5241 19.0909 11.0871 18.9298 10.7437 18.6607L12 17.4425L13.2563 18.6607C12.9129 18.9298 12.4759 19.0909 12 19.0909ZM10.3969 18.3113L11.6464 17.0997L10.4437 15.9334C10.1662 16.2664 10 16.6901 10 17.1516C10 17.5864 10.1476 17.9879 10.3969 18.3113ZM13.6031 18.3113L12.3536 17.0997L13.5563 15.9334C13.8338 16.2664 14 16.6901 14 17.1516C14 17.5864 13.8524 17.9879 13.6031 18.3113ZM12 16.7569L13.196 15.5971C12.8625 15.3554 12.4485 15.2122 12 15.2122C11.5515 15.2122 11.1375 15.3554 10.804 15.5971L12 16.7569Z"
                  fill="currentColor"/>
            <path d="M10 11.5001C10 12.8808 8.88071 14.0001 7.5 14.0001C6.11929 14.0001 5 12.8808 5 11.5001C5 10.1194 6.11929 9.00006 7.5 9.00006C8.88071 9.00006 10 10.1194 10 11.5001Z"
                  fill="currentColor"/>
            <path d="M19 11.5001C19 12.8808 17.8807 14.0001 16.5 14.0001C15.1193 14.0001 14 12.8808 14 11.5001C14 10.1194 15.1193 9.00006 16.5 9.00006C17.8807 9.00006 19 10.1194 19 11.5001Z"
                  fill="currentColor"/>

        </g>
    </defs>
</svg>