<svg width="24" height="24" viewBox="0 0 24 24" fill="none" xmlns="http://www.w3.org/2000/svg">
<path d="M18.5432 5.48682C18.9824 5.61154 19.1457 6.14259 18.8512 6.48811L13.8036 12.4091L17.6358 13.4974C18.1681 13.6485 18.2587 14.3565 17.7814 14.6342L7.75 19.9102C7.19242 20.2346 6.56168 19.617 6.88391 19.0621L9.79739 14.5795L6.95677 13.7727C6.54008 13.6544 6.36573 13.1649 6.61539 12.8143L8.67723 9.91899H4.625C4.27982 9.91899 4 9.65399 4 9.32709C4 9.0002 4.27982 8.73519 4.625 8.73519L12.9286 8.73518C13.2573 8.73518 13.5238 8.47018 13.5238 8.14329C13.5238 7.81639 13.2573 7.55139 12.9286 7.55139H8.375C8.02982 7.55139 7.75 7.28639 7.75 6.95949C7.75 6.63259 8.02982 6.36759 8.375 6.36759H11.2063L12.7039 4.26448C12.8585 4.04739 13.1351 3.95097 13.3932 4.02425L18.5432 5.48682Z" fill="#0C0C10"/>
</svg>
