<svg width="28" height="36" viewBox="0 0 28 36" fill="none" xmlns="http://www.w3.org/2000/svg">
<g filter="url(#filter0_d)">
<path opacity="0.3" fill-rule="evenodd" clip-rule="evenodd" d="M14 27.4167C15.8226 27.4167 17.3 27.0249 17.3 26.5417C17.3 26.0584 15.8226 25.6667 14 25.6667C12.1775 25.6667 10.7 26.0584 10.7 26.5417C10.7 27.0249 12.1775 27.4167 14 27.4167Z" fill="#0C0C10"/>
<path d="M9.60002 5.775C8.23312 5.775 7.12502 6.88309 7.12502 8.25V21.2667C7.12502 22.6336 8.23312 23.7417 9.60002 23.7417H11.1729L13.3116 26.5089C13.6592 26.9587 14.341 26.9496 14.6765 26.4908L16.687 23.7417H18.4C19.7669 23.7417 20.875 22.6336 20.875 21.2667V8.25C20.875 6.8831 19.7669 5.775 18.4 5.775H9.60002Z" fill="#0078FF" stroke="#005EE5" stroke-width="0.55"/>
<path d="M17.5988 11.2678C17.8403 11.3363 17.9301 11.6284 17.7681 11.8185L14.992 15.075L17.0997 15.6736C17.3924 15.7567 17.4423 16.1461 17.1798 16.2988L11.6625 19.2006C11.3558 19.379 11.0089 19.0393 11.1861 18.7342L12.7885 16.2687L11.2262 15.825C10.997 15.7599 10.9011 15.4907 11.0384 15.2979L12.1725 13.7054H9.94373C9.75388 13.7054 9.59998 13.5597 9.59998 13.3799C9.59998 13.2001 9.75388 13.0544 9.94373 13.0544L14.5107 13.0544C14.6915 13.0544 14.8381 12.9086 14.8381 12.7288C14.8381 12.549 14.6915 12.4033 14.5107 12.4033H12.0062C11.8164 12.4033 11.6625 12.2575 11.6625 12.0777C11.6625 11.8979 11.8164 11.7522 12.0062 11.7522H13.5634L14.3871 10.5955C14.4722 10.4761 14.6243 10.423 14.7662 10.4633L17.5988 11.2678Z" fill="white"/>
</g>
<defs>
<filter id="filter0_d" x="-3" y="-4" width="34" height="40" filterUnits="userSpaceOnUse" color-interpolation-filters="sRGB">
<feFlood flood-opacity="0" result="BackgroundImageFix"/>
<feColorMatrix in="SourceAlpha" type="matrix" values="0 0 0 0 0 0 0 0 0 0 0 0 0 0 0 0 0 0 127 0"/>
<feOffset dy="2"/>
<feGaussianBlur stdDeviation="3"/>
<feColorMatrix type="matrix" values="0 0 0 0 0.145098 0 0 0 0 0.164706 0 0 0 0 0.196078 0 0 0 0.12 0"/>
<feBlend mode="normal" in2="BackgroundImageFix" result="effect1_dropShadow"/>
<feBlend mode="normal" in="SourceGraphic" in2="effect1_dropShadow" result="shape"/>
</filter>
</defs>
</svg>
