<svg width="24" height="24" viewBox="0 0 24 24" fill="none" xmlns="http://www.w3.org/2000/svg">
<path d="M4.77002 10.0001C5.20652 8.41763 6.15016 7.02206 7.45618 6.02752C8.76219 5.03297 10.3584 4.49438 12 4.49438C13.6416 4.49438 15.2378 5.03297 16.5439 6.02752C17.8499 7.02206 18.7935 8.41763 19.23 10.0001" stroke="#0C0C10" stroke-width="1.5" stroke-miterlimit="10" stroke-linecap="round" stroke-linejoin="round"/>
<path d="M9.60706 17.7242C9.17306 16.2882 9.82806 9.82422 9.82806 9.82422C9.82806 9.82422 13.9931 14.9572 14.3931 16.2792C14.5851 16.9139 14.5171 17.5988 14.2041 18.1834C13.8911 18.7679 13.3587 19.2042 12.7241 19.3962C12.0894 19.5882 11.4045 19.5203 10.8199 19.2073C10.2353 18.8943 9.79908 18.3619 9.60706 17.7272V17.7242Z" stroke="#0C0C10" stroke-width="1.5" stroke-miterlimit="10" stroke-linecap="round" stroke-linejoin="round"/>
</svg>
