<svg width="24" height="24" viewBox="0 0 24 24" fill="none" xmlns="http://www.w3.org/2000/svg">
<path d="M7.5 19.5C8.60457 19.5 9.5 18.6046 9.5 17.5C9.5 16.3954 8.60457 15.5 7.5 15.5C6.39543 15.5 5.5 16.3954 5.5 17.5C5.5 18.6046 6.39543 19.5 7.5 19.5Z" stroke="#0C0C10" stroke-width="1.5" stroke-linecap="round" stroke-linejoin="round"/>
<path d="M17.5 8.5C18.6046 8.5 19.5 7.60457 19.5 6.5C19.5 5.39543 18.6046 4.5 17.5 4.5C16.3954 4.5 15.5 5.39543 15.5 6.5C15.5 7.60457 16.3954 8.5 17.5 8.5Z" stroke="#0C0C10" stroke-width="1.5" stroke-linecap="round" stroke-linejoin="round"/>
<path d="M7.5 13.5V7C7.5 6.33696 7.76339 5.70107 8.23223 5.23223C8.70107 4.76339 9.33696 4.5 10 4.5V4.5C10.3283 4.5 10.6534 4.56466 10.9567 4.6903C11.26 4.81594 11.5356 5.00009 11.7678 5.23223C11.9999 5.46438 12.1841 5.73998 12.3097 6.04329C12.4353 6.34661 12.5 6.6717 12.5 7V17C12.5 17.663 12.7634 18.2989 13.2322 18.7678C13.7011 19.2366 14.337 19.5 15 19.5C15.663 19.5 16.2989 19.2366 16.7678 18.7678C17.2366 18.2989 17.5 17.663 17.5 17V10.5" stroke="#0C0C10" stroke-width="1.5" stroke-linecap="round" stroke-linejoin="round"/>
</svg>
